<?xml version="1.0" encoding="UTF-8" standalone="no"?>
<svg width="920px" height="510px" viewBox="0 0 920 510" version="1.1" xmlns="http://www.w3.org/2000/svg" xmlns:xlink="http://www.w3.org/1999/xlink" xmlns:sketch="http://www.bohemiancoding.com/sketch/ns">
    <!-- Generator: Sketch 3.1 (8751) - http://www.bohemiancoding.com/sketch -->
    <title>Artboard</title>
    <desc>Created with Sketch.</desc>
    <defs>
        <linearGradient x1="50%" y1="0%" x2="50%" y2="100%" id="linearGradient-1">
            <stop stop-color="#FFFFFF" offset="0%"></stop>
            <stop stop-color="#ACC39E" offset="100%"></stop>
        </linearGradient>
        <linearGradient x1="50%" y1="0%" x2="50%" y2="100%" id="linearGradient-2">
            <stop stop-color="#FFFFFF" offset="0%"></stop>
            <stop stop-color="#AAC19B" offset="100%"></stop>
        </linearGradient>
        <linearGradient x1="50%" y1="0%" x2="50%" y2="100%" id="linearGradient-3">
            <stop stop-color="#FFFFFF" offset="0%"></stop>
            <stop stop-color="#EFC98C" offset="100%"></stop>
        </linearGradient>
        <linearGradient x1="50%" y1="0%" x2="50%" y2="100%" id="linearGradient-4">
            <stop stop-color="#FFFFFF" offset="0%"></stop>
            <stop stop-color="#E6E6E6" offset="100%"></stop>
        </linearGradient>
        <linearGradient x1="50%" y1="0%" x2="50%" y2="100%" id="linearGradient-5">
            <stop stop-color="#FFFFFF" offset="0%"></stop>
            <stop stop-color="#E2BAE4" offset="100%"></stop>
        </linearGradient>
        <linearGradient x1="50%" y1="0%" x2="50%" y2="100%" id="linearGradient-6">
            <stop stop-color="#FFFFFF" offset="0%"></stop>
            <stop stop-color="#A2CACE" offset="100%"></stop>
        </linearGradient>
    </defs>
    <g id="Page-1" stroke="none" stroke-width="1" fill="none" fill-rule="evenodd" sketch:type="MSPage">
        <g id="Artboard" sketch:type="MSArtboardGroup" transform="translate(0.000000, 0.000000)">
            <g id="hasSubProgram-arrow" sketch:type="MSLayerGroup" transform="translate(276.500000, 303.000000) rotate(-90.000000) translate(-276.500000, -303.000000) translate(260.500000, 271.500000)" stroke="#000000">
                <path d="M3.87878788,11 C6.05445507,11 7.81818182,9.209139 7.81818182,7 C7.81818182,4.790861 6.05445507,3 3.87878788,3 C1.70312068,3 -0.0606060606,4.790861 -0.0606060606,7 C-0.0606060606,9.209139 1.70312068,11 3.87878788,11 Z" id="Oval-1" fill="#000000" sketch:type="MSShapeGroup"></path>
                <path d="M8.81049947,13.3690494 L15.1513317,0.492282385 L21.492164,13.3690494" id="Triangle-1" sketch:type="MSShapeGroup" transform="translate(15.151332, 6.930666) rotate(-91.000000) translate(-15.151332, -6.930666) "></path>
                <path d="M0,63 L32,63 L32,7 L0,7" id="Rectangle-1" sketch:type="MSShapeGroup"></path>
            </g>
            <g id="wasInformedBy-arrow" sketch:type="MSLayerGroup" transform="translate(531.000000, 122.500000) rotate(-90.000000) translate(-531.000000, -122.500000) translate(515.000000, 101.000000)" stroke="#000000">
                <path d="M3.87878788,11 C6.05445507,11 7.81818182,9.209139 7.81818182,7 C7.81818182,4.790861 6.05445507,3 3.87878788,3 C1.70312068,3 -0.0606060606,4.790861 -0.0606060606,7 C-0.0606060606,9.209139 1.70312068,11 3.87878788,11 Z" id="Oval-1" fill="#000000" sketch:type="MSShapeGroup"></path>
                <path d="M8.81049947,13.3690494 L15.1513317,0.492282385 L21.492164,13.3690494" id="Triangle-1" sketch:type="MSShapeGroup" transform="translate(15.151332, 6.930666) rotate(-91.000000) translate(-15.151332, -6.930666) "></path>
                <path d="M0,43 L32,43 L32,7 L0,7" id="Rectangle-1" sketch:type="MSShapeGroup"></path>
            </g>
            <g id="wasDerivedFromData-arrow" sketch:type="MSLayerGroup" transform="translate(763.000000, 143.000000)" stroke="#000000">
                <path d="M3.87878788,11 C6.05445507,11 7.81818182,9.209139 7.81818182,7 C7.81818182,4.790861 6.05445507,3 3.87878788,3 C1.70312068,3 -0.0606060606,4.790861 -0.0606060606,7 C-0.0606060606,9.209139 1.70312068,11 3.87878788,11 Z" id="Oval-1" fill="#000000" sketch:type="MSShapeGroup"></path>
                <path d="M8.81049947,13.3690494 L15.1513317,0.492282385 L21.492164,13.3690494" id="Triangle-1" sketch:type="MSShapeGroup" transform="translate(15.151332, 6.930666) rotate(-91.000000) translate(-15.151332, -6.930666) "></path>
                <path d="M0,29 L32,29 L32,7 L0,7" id="Rectangle-1" sketch:type="MSShapeGroup"></path>
            </g>
            <g id="wasInformedBy-arrow-2" sketch:type="MSLayerGroup" transform="translate(485.500000, 122.500000) rotate(-90.000000) translate(-485.500000, -122.500000) translate(469.500000, 101.000000)" stroke="#000000">
                <path d="M3.87878788,11 C6.05445507,11 7.81818182,9.209139 7.81818182,7 C7.81818182,4.790861 6.05445507,3 3.87878788,3 C1.70312068,3 -0.0606060606,4.790861 -0.0606060606,7 C-0.0606060606,9.209139 1.70312068,11 3.87878788,11 Z" id="Oval-1" fill="#000000" sketch:type="MSShapeGroup"></path>
                <path d="M8.81049947,13.3690494 L15.1513317,0.492282385 L21.492164,13.3690494" id="Triangle-1" sketch:type="MSShapeGroup" transform="translate(15.151332, 6.930666) rotate(-91.000000) translate(-15.151332, -6.930666) "></path>
                <path d="M0,43 L32,43 L32,7 L0,7" id="Rectangle-1" sketch:type="MSShapeGroup"></path>
            </g>
            <g id="wasDerivedFrom-arrow" sketch:type="MSLayerGroup" transform="translate(318.500000, 374.000000) rotate(90.000000) translate(-318.500000, -374.000000) translate(302.500000, 355.000000)" stroke="#000000">
                <path d="M3.87878788,11 C6.05445507,11 7.81818182,9.209139 7.81818182,7 C7.81818182,4.790861 6.05445507,3 3.87878788,3 C1.70312068,3 -0.0606060606,4.790861 -0.0606060606,7 C-0.0606060606,9.209139 1.70312068,11 3.87878788,11 Z" id="Oval-1" fill="#000000" sketch:type="MSShapeGroup"></path>
                <path d="M8.81049947,13.3690494 L15.1513317,0.492282385 L21.492164,13.3690494" id="Triangle-1" sketch:type="MSShapeGroup" transform="translate(15.151332, 6.930666) rotate(-91.000000) translate(-15.151332, -6.930666) "></path>
                <path d="M0,38 L32,38 L32,7 L0,7" id="Rectangle-1" sketch:type="MSShapeGroup"></path>
            </g>
            <g id="usedChannel-arrow" sketch:type="MSLayerGroup" transform="translate(707.000000, 230.000000)" stroke="#000000">
                <path d="M6.5,79.5 L6.5,-52.594663" id="Line-2" stroke-linecap="square" sketch:type="MSShapeGroup"></path>
                <path d="M6.5,88.6212121 C8.6756672,88.6212121 10.4393939,86.8303511 10.4393939,84.6212121 C10.4393939,82.4120731 8.6756672,80.6212121 6.5,80.6212121 C4.3243328,80.6212121 2.56060606,82.4120731 2.56060606,84.6212121 C2.56060606,86.8303511 4.3243328,88.6212121 6.5,88.6212121 Z" id="Oval-1" fill="#000000" sketch:type="MSShapeGroup" transform="translate(6.500000, 84.621212) rotate(-90.000000) translate(-6.500000, -84.621212) "></path>
                <path d="M0.0898336502,79.7870518 L6.4306659,66.9102848 L12.7714981,79.7870518" id="Triangle-1" sketch:type="MSShapeGroup" transform="translate(6.430666, 73.348668) rotate(-181.000000) translate(-6.430666, -73.348668) "></path>
            </g>
            <g id="hasDefaultParam-arrow" sketch:type="MSLayerGroup" transform="translate(620.287237, 219.919997) rotate(234.000000) translate(-620.287237, -219.919997) translate(613.787237, 148.919997)" stroke="#000000">
                <path d="M6.5,132.5 L6.5,-4.38178843" id="Line-2" stroke-linecap="square" sketch:type="MSShapeGroup"></path>
                <path d="M6.5,141.621212 C8.6756672,141.621212 10.4393939,139.830351 10.4393939,137.621212 C10.4393939,135.412073 8.6756672,133.621212 6.5,133.621212 C4.3243328,133.621212 2.56060606,135.412073 2.56060606,137.621212 C2.56060606,139.830351 4.3243328,141.621212 6.5,141.621212 Z" id="Oval-1" fill="#000000" sketch:type="MSShapeGroup" transform="translate(6.500000, 137.621212) rotate(-90.000000) translate(-6.500000, -137.621212) "></path>
                <path d="M0.0898336502,132.787052 L6.4306659,119.910285 L12.7714981,132.787052" id="Triangle-1" sketch:type="MSShapeGroup" transform="translate(6.430666, 126.348668) rotate(-181.000000) translate(-6.430666, -126.348668) "></path>
            </g>
            <g id="controlledBy-arrow" sketch:type="MSLayerGroup" transform="translate(182.000000, 329.500000) rotate(90.000000) translate(-182.000000, -329.500000) translate(175.500000, 266.500000)" stroke="#000000">
                <path d="M6.5,116.5 L6.5,0.49568975" id="Line-2" stroke-linecap="square" sketch:type="MSShapeGroup"></path>
                <path d="M6.5,125.621212 C8.6756672,125.621212 10.4393939,123.830351 10.4393939,121.621212 C10.4393939,119.412073 8.6756672,117.621212 6.5,117.621212 C4.3243328,117.621212 2.56060606,119.412073 2.56060606,121.621212 C2.56060606,123.830351 4.3243328,125.621212 6.5,125.621212 Z" id="Oval-1" fill="#000000" sketch:type="MSShapeGroup" transform="translate(6.500000, 121.621212) rotate(-90.000000) translate(-6.500000, -121.621212) "></path>
                <path d="M0.0898336502,116.787052 L6.4306659,103.910285 L12.7714981,116.787052" id="Triangle-1" sketch:type="MSShapeGroup" transform="translate(6.430666, 110.348668) rotate(-181.000000) translate(-6.430666, -110.348668) "></path>
            </g>
            <g id="controls-arrow" sketch:type="MSLayerGroup" transform="translate(181.000000, 348.000000) rotate(270.000000) translate(-181.000000, -348.000000) translate(174.500000, 285.000000)" stroke="#000000">
                <path d="M6.5,116.5 L6.5,0.49568975" id="Line-2" stroke-linecap="square" sketch:type="MSShapeGroup"></path>
                <path d="M6.5,125.621212 C8.6756672,125.621212 10.4393939,123.830351 10.4393939,121.621212 C10.4393939,119.412073 8.6756672,117.621212 6.5,117.621212 C4.3243328,117.621212 2.56060606,119.412073 2.56060606,121.621212 C2.56060606,123.830351 4.3243328,125.621212 6.5,125.621212 Z" id="Oval-1" fill="#000000" sketch:type="MSShapeGroup" transform="translate(6.500000, 121.621212) rotate(-90.000000) translate(-6.500000, -121.621212) "></path>
                <path d="M0.0898336502,116.787052 L6.4306659,103.910285 L12.7714981,116.787052" id="Triangle-1" sketch:type="MSShapeGroup" transform="translate(6.430666, 110.348668) rotate(-181.000000) translate(-6.430666, -110.348668) "></path>
            </g>
            <g id="hasOutPort-arrow" sketch:type="MSLayerGroup" transform="translate(402.000000, 374.000000) rotate(297.000000) translate(-402.000000, -374.000000) translate(395.500000, 311.000000)" stroke="#000000">
                <path d="M6.5,116.5 L6.5,-2.51691625" id="Line-2" stroke-linecap="square" sketch:type="MSShapeGroup"></path>
                <path d="M6.5,125.621212 C8.6756672,125.621212 10.4393939,123.830351 10.4393939,121.621212 C10.4393939,119.412073 8.6756672,117.621212 6.5,117.621212 C4.3243328,117.621212 2.56060606,119.412073 2.56060606,121.621212 C2.56060606,123.830351 4.3243328,125.621212 6.5,125.621212 Z" id="Oval-1" fill="#000000" sketch:type="MSShapeGroup" transform="translate(6.500000, 121.621212) rotate(-90.000000) translate(-6.500000, -121.621212) "></path>
                <path d="M0.0898336502,116.787052 L6.4306659,103.910285 L12.7714981,116.787052" id="Triangle-1" sketch:type="MSShapeGroup" transform="translate(6.430666, 110.348668) rotate(-181.000000) translate(-6.430666, -110.348668) "></path>
            </g>
            <g id="inputsFrom-arrow" sketch:type="MSLayerGroup" transform="translate(604.000000, 316.392944) rotate(293.000000) translate(-604.000000, -316.392944) translate(597.500000, 253.392944)" stroke="#000000">
                <path d="M6.5,116.5 L6.5,-2.51691625" id="Line-2" stroke-linecap="square" sketch:type="MSShapeGroup"></path>
                <path d="M6.5,125.621212 C8.6756672,125.621212 10.4393939,123.830351 10.4393939,121.621212 C10.4393939,119.412073 8.6756672,117.621212 6.5,117.621212 C4.3243328,117.621212 2.56060606,119.412073 2.56060606,121.621212 C2.56060606,123.830351 4.3243328,125.621212 6.5,125.621212 Z" id="Oval-1" fill="#000000" sketch:type="MSShapeGroup" transform="translate(6.500000, 121.621212) rotate(-90.000000) translate(-6.500000, -121.621212) "></path>
                <path d="M0.0898336502,116.787052 L6.4306659,103.910285 L12.7714981,116.787052" id="Triangle-1" sketch:type="MSShapeGroup" transform="translate(6.430666, 110.348668) rotate(-181.000000) translate(-6.430666, -110.348668) "></path>
            </g>
            <g id="outputsTo-arrow" sketch:type="MSLayerGroup" transform="translate(656.590461, 382.150770) rotate(250.000000) translate(-656.590461, -382.150770) translate(650.090461, 317.650770)" stroke="#000000">
                <path d="M6.5,119.5 L6.5,-39.7313731" id="Line-2" stroke-linecap="square" sketch:type="MSShapeGroup"></path>
                <path d="M6.5,128.621212 C8.6756672,128.621212 10.4393939,126.830351 10.4393939,124.621212 C10.4393939,122.412073 8.6756672,120.621212 6.5,120.621212 C4.3243328,120.621212 2.56060606,122.412073 2.56060606,124.621212 C2.56060606,126.830351 4.3243328,128.621212 6.5,128.621212 Z" id="Oval-1" fill="#000000" sketch:type="MSShapeGroup" transform="translate(6.500000, 124.621212) rotate(-90.000000) translate(-6.500000, -124.621212) "></path>
                <path d="M0.0898336502,119.787052 L6.4306659,106.910285 L12.7714981,119.787052" id="Triangle-1" sketch:type="MSShapeGroup" transform="translate(6.430666, 113.348668) rotate(-181.000000) translate(-6.430666, -113.348668) "></path>
            </g>
            <g id="outputsFrom-arrow" sketch:type="MSLayerGroup" transform="translate(619.590461, 373.683006) rotate(69.000000) translate(-619.590461, -373.683006) translate(613.090461, 309.183006)" stroke="#000000">
                <path d="M6.5,119.5 L6.5,-39.7313731" id="Line-2" stroke-linecap="square" sketch:type="MSShapeGroup"></path>
                <path d="M6.5,128.621212 C8.6756672,128.621212 10.4393939,126.830351 10.4393939,124.621212 C10.4393939,122.412073 8.6756672,120.621212 6.5,120.621212 C4.3243328,120.621212 2.56060606,122.412073 2.56060606,124.621212 C2.56060606,126.830351 4.3243328,128.621212 6.5,128.621212 Z" id="Oval-1" fill="#000000" sketch:type="MSShapeGroup" transform="translate(6.500000, 124.621212) rotate(-90.000000) translate(-6.500000, -124.621212) "></path>
                <path d="M0.0898336502,119.787052 L6.4306659,106.910285 L12.7714981,119.787052" id="Triangle-1" sketch:type="MSShapeGroup" transform="translate(6.430666, 113.348668) rotate(-181.000000) translate(-6.430666, -113.348668) "></path>
            </g>
            <g id="inputsTo-arrow" sketch:type="MSLayerGroup" transform="translate(618.000000, 301.392944) rotate(113.000000) translate(-618.000000, -301.392944) translate(611.500000, 238.392944)" stroke="#000000">
                <path d="M6.5,116.5 L6.5,-2.51691625" id="Line-2" stroke-linecap="square" sketch:type="MSShapeGroup"></path>
                <path d="M6.5,125.621212 C8.6756672,125.621212 10.4393939,123.830351 10.4393939,121.621212 C10.4393939,119.412073 8.6756672,117.621212 6.5,117.621212 C4.3243328,117.621212 2.56060606,119.412073 2.56060606,121.621212 C2.56060606,123.830351 4.3243328,125.621212 6.5,125.621212 Z" id="Oval-1" fill="#000000" sketch:type="MSShapeGroup" transform="translate(6.500000, 121.621212) rotate(-90.000000) translate(-6.500000, -121.621212) "></path>
                <path d="M0.0898336502,116.787052 L6.4306659,103.910285 L12.7714981,116.787052" id="Triangle-1" sketch:type="MSShapeGroup" transform="translate(6.430666, 110.348668) rotate(-181.000000) translate(-6.430666, -110.348668) "></path>
            </g>
            <g id="wasAssociatedWith-arrow" sketch:type="MSLayerGroup" transform="translate(119.000000, 151.000000)" stroke="#000000">
                <path d="M3.87878788,11 C6.05445507,11 7.81818182,9.209139 7.81818182,7 C7.81818182,4.790861 6.05445507,3 3.87878788,3 C1.70312068,3 -0.0606060606,4.790861 -0.0606060606,7 C-0.0606060606,9.209139 1.70312068,11 3.87878788,11 Z" id="Oval-1" fill="#000000" sketch:type="MSShapeGroup"></path>
                <path d="M8.81049947,13.3690494 L15.1513317,0.492282385 L21.492164,13.3690494" id="Triangle-1" sketch:type="MSShapeGroup" transform="translate(15.151332, 6.930666) rotate(-91.000000) translate(-15.151332, -6.930666) "></path>
                <path d="M339.529816,7 L0,7" id="Rectangle-1" sketch:type="MSShapeGroup"></path>
            </g>
            <g id="hadMember-arrow" sketch:type="MSLayerGroup" transform="translate(707.000000, 57.000000)" stroke="#000000">
                <path d="M10.8418329,78.0909091 C10.8418329,75.9152419 9.05097188,74.1515152 6.84183288,74.1515152 C4.63269389,74.1515152 2.84183288,75.9152419 2.84183288,78.0909091 C2.84183288,80.2665763 4.63269389,82.030303 6.84183288,82.030303 C9.05097188,82.030303 10.8418329,80.2665763 10.8418329,78.0909091 Z" id="Oval-1" fill="#000000" sketch:type="MSShapeGroup"></path>
                <path d="M13,60.2702996 L6.88486407,73.2557682 L0.320266989,60.4916251" id="Triangle-1" sketch:type="MSShapeGroup"></path>
                <path d="M6.84183288,0.667794199 L6.84183288,81.969697" id="Rectangle-1" sketch:type="MSShapeGroup"></path>
            </g>
            <g id="qualifiedAssociation-arrow" sketch:type="MSLayerGroup" transform="translate(382.254874, 195.904316) rotate(-23.000000) translate(-382.254874, -195.904316) translate(341.254874, 189.404316)" stroke="#000000">
                <path d="M3.87878788,11 C6.05445507,11 7.81818182,9.209139 7.81818182,7 C7.81818182,4.790861 6.05445507,3 3.87878788,3 C1.70312068,3 -0.0606060606,4.790861 -0.0606060606,7 C-0.0606060606,9.209139 1.70312068,11 3.87878788,11 Z" id="Oval-1" fill="#000000" sketch:type="MSShapeGroup"></path>
                <path d="M8.81049947,13.3690494 L15.1513317,0.492282385 L21.492164,13.3690494" id="Triangle-1" sketch:type="MSShapeGroup" transform="translate(15.151332, 6.930666) rotate(-91.000000) translate(-15.151332, -6.930666) "></path>
                <path d="M124.684151,7 L0,7" id="Rectangle-1" sketch:type="MSShapeGroup"></path>
            </g>
            <g id="wasAttributedTo-arrow" sketch:type="MSLayerGroup" transform="translate(191.777849, 415.111110) rotate(-38.000000) translate(-191.777849, -415.111110) translate(99.277849, 408.611110)" stroke="#000000">
                <path d="M4.87878788,11 C7.05445507,11 8.81818182,9.209139 8.81818182,7 C8.81818182,4.790861 7.05445507,3 4.87878788,3 C2.70312068,3 0.939393939,4.790861 0.939393939,7 C0.939393939,9.209139 2.70312068,11 4.87878788,11 Z" id="Oval-1" fill="#000000" sketch:type="MSShapeGroup"></path>
                <path d="M9.81049947,13.3690494 L16.1513317,0.492282385 L22.492164,13.3690494" id="Triangle-1" sketch:type="MSShapeGroup" transform="translate(16.151332, 6.930666) rotate(-91.000000) translate(-16.151332, -6.930666) "></path>
                <path d="M186.85083,7 L1,7" id="Rectangle-1" sketch:type="MSShapeGroup"></path>
            </g>
            <g id="qualifiedAssociation-4" sketch:type="MSLayerGroup" transform="translate(182.184995, 191.272681) rotate(20.000000) translate(-182.184995, -191.272681) translate(115.684995, 184.772681)" stroke="#000000">
                <path d="M3.87878788,11 C6.05445507,11 7.81818182,9.209139 7.81818182,7 C7.81818182,4.790861 6.05445507,3 3.87878788,3 C1.70312068,3 -0.0606060606,4.790861 -0.0606060606,7 C-0.0606060606,9.209139 1.70312068,11 3.87878788,11 Z" id="Oval-1" fill="#000000" sketch:type="MSShapeGroup"></path>
                <path d="M8.81049947,13.3690494 L15.1513317,0.492282385 L21.492164,13.3690494" id="Triangle-1" sketch:type="MSShapeGroup" transform="translate(15.151332, 6.930666) rotate(-91.000000) translate(-15.151332, -6.930666) "></path>
                <path d="M132.454361,7 L-8.52651283e-14,7" id="Rectangle-1" sketch:type="MSShapeGroup"></path>
            </g>
            <g id="User-Box-+-User" sketch:type="MSLayerGroup" transform="translate(18.000000, 140.000000)">
                <rect id="User-Box" stroke="#000000" fill="url(#linearGradient-1)" sketch:type="MSShapeGroup" x="0" y="0" width="100" height="37"></rect>
                <text id="User" sketch:type="MSTextLayer" font-family="Cambria" font-size="14" font-weight="normal" fill="#000000">
                    <tspan x="36" y="22">User</tspan>
                </text>
            </g>
            <g id="Author-Box-+-Author" sketch:type="MSLayerGroup" transform="translate(18.000000, 456.000000)">
                <rect id="Author-Box" stroke="#000000" fill="url(#linearGradient-2)" sketch:type="MSShapeGroup" x="0" y="0" width="100" height="37"></rect>
                <text id="Author" sketch:type="MSTextLayer" font-family="Cambria" font-size="14" font-weight="normal" fill="#000000">
                    <tspan x="29" y="22">Author</tspan>
                </text>
            </g>
            <g id="Execution-Box-+-Execution" sketch:type="MSLayerGroup" transform="translate(459.000000, 139.000000)">
                <rect id="Execution-Box" stroke="#000000" fill="url(#linearGradient-3)" sketch:type="MSShapeGroup" x="0" y="0" width="100" height="37"></rect>
                <text id="Execution" sketch:type="MSTextLayer" font-family="Cambria" font-size="14" font-weight="normal" fill="#000000">
                    <tspan x="20" y="22.5">Execution</tspan>
                </text>
            </g>
            <g id="Run-Box-+-Run" sketch:type="MSLayerGroup" transform="translate(244.000000, 201.000000)">
                <rect id="Run-Box" stroke="#000000" fill="url(#linearGradient-4)" sketch:type="MSShapeGroup" x="0" y="0" width="100" height="37"></rect>
                <text id="Run" sketch:type="MSTextLayer" font-family="Cambria" font-size="14" font-weight="normal" fill="#000000">
                    <tspan x="38" y="22.7675781">Run</tspan>
                </text>
            </g>
            <g id="Data-Box-+-Data" sketch:type="MSLayerGroup" transform="translate(663.000000, 139.000000)">
                <rect id="Data-Box" stroke="#000000" fill="url(#linearGradient-5)" sketch:type="MSShapeGroup" x="0" y="0" width="100" height="37"></rect>
                <text id="Data" sketch:type="MSTextLayer" font-family="Cambria" font-size="14" font-weight="normal" fill="#000000">
                    <tspan x="36" y="22.7675781">Data</tspan>
                </text>
            </g>
            <g id="Collection-Box-+-Collection" sketch:type="MSLayerGroup" transform="translate(663.000000, 19.000000)">
                <rect id="Collection-Box" stroke="#000000" fill="url(#linearGradient-5)" sketch:type="MSShapeGroup" x="0" y="0" width="100" height="37"></rect>
                <text id="Collection" sketch:type="MSTextLayer" font-family="Cambria" font-size="14" font-weight="normal" fill="#000000">
                    <tspan x="20" y="21.7675781">Collection</tspan>
                </text>
            </g>
            <g id="SeqCntrlLink-Box-+-SeqController" sketch:type="MSLayerGroup" transform="translate(18.000000, 320.000000)">
                <rect id="SeqCntrlLink-Box" stroke="#000000" fill="url(#linearGradient-6)" sketch:type="MSShapeGroup" x="0" y="0" width="100" height="37"></rect>
                <text id="SeqController" sketch:type="MSTextLayer" font-family="Cambria" font-size="14" font-weight="normal" fill="#000000">
                    <tspan x="9" y="23">SeqController</tspan>
                </text>
            </g>
            <g id="Program-Box-+-Program" sketch:type="MSLayerGroup" transform="translate(244.000000, 320.000000)">
                <rect id="Program-Box" stroke="#000000" fill="url(#linearGradient-6)" sketch:type="MSShapeGroup" x="0" y="0" width="100" height="37"></rect>
                <text id="Program" sketch:type="MSTextLayer" font-family="Cambria" font-size="14" font-weight="normal" fill="#000000">
                    <tspan x="24" y="22">Program</tspan>
                </text>
            </g>
            <g id="Workflow-Box-+-Workflow" sketch:type="MSLayerGroup" transform="translate(244.000000, 456.000000)">
                <rect id="Workflow-Box" stroke="#000000" fill="url(#linearGradient-6)" sketch:type="MSShapeGroup" x="0" y="0" width="100" height="37"></rect>
                <text id="Workflow" sketch:type="MSTextLayer" font-family="Cambria" font-size="14" font-weight="normal" fill="#000000">
                    <tspan x="21" y="22">Workflow</tspan>
                </text>
            </g>
            <g id="Channel-Box-+-Channel" sketch:type="MSLayerGroup" transform="translate(663.000000, 320.000000)">
                <rect id="Channel-Box" stroke="#000000" fill="url(#linearGradient-6)" sketch:type="MSShapeGroup" x="0" y="0" width="100" height="37"></rect>
                <text id="Channel" sketch:type="MSTextLayer" font-family="Cambria" font-size="14" font-weight="normal" fill="#000000">
                    <tspan x="26" y="22">Channel</tspan>
                </text>
            </g>
            <g id="InputPort-Box-+-InputPort" sketch:type="MSLayerGroup" transform="translate(459.000000, 260.000000)">
                <rect id="InputPort-Box" stroke="#000000" fill="url(#linearGradient-6)" sketch:type="MSShapeGroup" x="0" y="0" width="100" height="37"></rect>
                <text id="InputPort" sketch:type="MSTextLayer" font-family="Cambria" font-size="14" font-weight="normal" fill="#000000">
                    <tspan x="21" y="22">InputPort</tspan>
                </text>
            </g>
            <g id="OutputPort-Box-+-OutputPort" sketch:type="MSLayerGroup" transform="translate(459.000000, 381.000000)">
                <rect id="OutputPort-Box" stroke="#000000" fill="url(#linearGradient-6)" sketch:type="MSShapeGroup" x="0" y="0" width="100" height="37"></rect>
                <text id="OutputPort" sketch:type="MSTextLayer" font-family="Cambria" font-size="14" font-weight="normal" fill="#000000">
                    <tspan x="16" y="22">OutputPort</tspan>
                </text>
            </g>
            <text id="inputsFrom" sketch:type="MSTextLayer" font-family="Cambria" font-size="12" font-weight="normal" fill="#000000">
                <tspan x="539" y="329">inputsFrom</tspan>
            </text>
            <text id="usedChannel" sketch:type="MSTextLayer" font-family="Cambria" font-size="12" font-weight="normal" fill="#000000">
                <tspan x="718" y="246">usedChannel</tspan>
            </text>
            <text id="hasInPort" sketch:type="MSTextLayer" font-family="Cambria" font-size="12" font-weight="normal" fill="#000000">
                <tspan x="366" y="291">hasInPort</tspan>
            </text>
            <text id="isPartOf" sketch:type="MSTextLayer" font-family="Cambria" font-size="12" font-weight="normal" fill="#000000">
                <tspan x="464" y="97">isPartOf</tspan>
            </text>
            <text id="hasDefaultParam" sketch:type="MSTextLayer" font-family="Cambria" font-size="12" font-weight="normal" fill="#000000">
                <tspan x="516" y="221">hasDefaultParam</tspan>
            </text>
            <text id="outputsTo" sketch:type="MSTextLayer" font-family="Cambria" font-size="12" font-weight="normal" fill="#000000">
                <tspan x="627" y="407">outputsTo</tspan>
            </text>
            <text id="hasOutPort" sketch:type="MSTextLayer" font-family="Cambria" font-size="12" font-weight="normal" fill="#000000">
                <tspan x="383" y="358">hasOutPort</tspan>
            </text>
            <text id="inputsTo" sketch:type="MSTextLayer" font-family="Cambria" font-size="12" font-weight="normal" fill="#000000">
                <tspan x="616" y="292">inputsTo</tspan>
            </text>
            <text id="outputsFrom" sketch:type="MSTextLayer" font-family="Cambria" font-size="12" font-weight="normal" fill="#000000">
                <tspan x="535" y="357">outputsFrom</tspan>
            </text>
            <text id="«hadMember»" sketch:type="MSTextLayer" font-family="Cambria" font-size="12" font-weight="normal" fill="#000000">
                <tspan x="721" y="101">«</tspan>
                <tspan x="726.853516" y="101">hadMember</tspan>
                <tspan x="788.998047" y="101" font-style="italic">»</tspan>
            </text>
            <text id="«wasGeneratedBy»" sketch:type="MSTextLayer" font-family="Cambria" font-size="12" font-weight="normal" fill="#000000">
                <tspan x="564.00763" y="183">«</tspan>
                <tspan x="569.861146" y="183">wasGeneratedBy</tspan>
                <tspan x="656.029114" y="183" font-style="italic">»</tspan>
            </text>
            <text id="«wasDerivedFrom»" sketch:type="MSTextLayer" font-family="Cambria" font-size="12" font-weight="normal" fill="#000000">
                <tspan x="802.00763" y="163">«</tspan>
                <tspan x="807.861146" y="163">wasDerivedFrom</tspan>
                <tspan x="895.464661" y="163" font-style="italic">»</tspan>
            </text>
            <text id="«used»" sketch:type="MSTextLayer" font-family="Cambria" font-size="12" font-weight="normal" fill="#000000">
                <tspan x="591" y="136">«</tspan>
                <tspan x="596.853516" y="136">used</tspan>
                <tspan x="621.146484" y="136" font-style="italic">»</tspan>
            </text>
            <text id="«wasAttributedTo»" sketch:type="MSTextLayer" font-family="Cambria" font-size="12" font-weight="normal" fill="#000000">
                <tspan x="85" y="417">«</tspan>
                <tspan x="90.8535156" y="417">wasAttributedTo</tspan>
                <tspan x="176.828125" y="417" font-style="italic">»</tspan>
            </text>
            <text id="«wasDerivedFrom»" sketch:type="MSTextLayer" font-family="Cambria" font-size="12" font-weight="normal" fill="#000000">
                <tspan x="286" y="417">«</tspan>
                <tspan x="291.853516" y="417">wasDerivedFrom</tspan>
                <tspan x="379.457031" y="417" font-style="italic">»</tspan>
            </text>
            <text id="hasSubProgram" sketch:type="MSTextLayer" font-family="Cambria" font-size="12" font-weight="normal" fill="#000000">
                <tspan x="227" y="281">hasSubProgram</tspan>
            </text>
            <text id="«qualifiedAssociatio" sketch:type="MSTextLayer" font-family="Cambria" font-size="12" font-weight="normal" fill="#000000">
                <tspan x="292.535325" y="182">«</tspan>
                <tspan x="298.388841" y="182">qualifiedAssociation</tspan>
                <tspan x="402.609544" y="182" font-style="italic">»</tspan>
            </text>
            <text id="«wasAssociatedWith»" sketch:type="MSTextLayer" font-family="Cambria" font-size="12" font-weight="normal" fill="#000000">
                <tspan x="236" y="152">«</tspan>
                <tspan x="241.853516" y="152">wasAssociatedWith</tspan>
                <tspan x="342.119141" y="152" font-style="italic">»</tspan>
            </text>
            <text id="«hadPlan»" sketch:type="MSTextLayer" font-family="Cambria" font-size="12" font-weight="normal" fill="#000000">
                <tspan x="328" y="272">«</tspan>
                <tspan x="333.853516" y="272">hadPlan</tspan>
                <tspan x="375.619141" y="272" font-style="italic">»</tspan>
            </text>
            <text id="«agent»" sketch:type="MSTextLayer" font-family="Cambria" font-size="12" font-weight="normal" fill="#000000">
                <tspan x="154" y="208">«</tspan>
                <tspan x="159.853516" y="208">agent</tspan>
                <tspan x="188.253906" y="208" font-style="italic">»</tspan>
            </text>
            <text id="controlledBy" sketch:type="MSTextLayer" font-family="Cambria" font-size="12" font-weight="normal" fill="#000000">
                <tspan x="151" y="324">controlledBy</tspan>
            </text>
            <text id="controls" sketch:type="MSTextLayer" font-family="Cambria" font-size="12" font-weight="normal" fill="#000000">
                <tspan x="161" y="361">controls</tspan>
            </text>
            <text id="[*]" sketch:type="MSTextLayer" font-family="Cambria" font-size="12" font-weight="normal" fill="#4A4A4A">
                <tspan x="131" y="366">[*]</tspan>
            </text>
            <text id="[*]-3" sketch:type="MSTextLayer" font-family="Cambria" font-size="12" font-weight="normal" fill="#4A4A4A">
                <tspan x="144" y="468">[*]</tspan>
            </text>
            <text id="[*]-4" sketch:type="MSTextLayer" font-family="Cambria" font-size="12" font-weight="normal" fill="#4A4A4A">
                <tspan x="248" y="385">[*]</tspan>
            </text>
            <text id="[*]-5" sketch:type="MSTextLayer" font-family="Cambria" font-size="12" font-weight="normal" fill="#4A4A4A">
                <tspan x="339" y="369">[*]</tspan>
            </text>
            <text id="[*]-7" sketch:type="MSTextLayer" font-family="Cambria" font-size="12" font-weight="normal" fill="#4A4A4A">
                <tspan x="436" y="379">[*]</tspan>
            </text>
            <text id="[*]-8" sketch:type="MSTextLayer" font-family="Cambria" font-size="12" font-weight="normal" fill="#4A4A4A">
                <tspan x="436" y="272">[*]</tspan>
            </text>
            <text id="[*]-2" sketch:type="MSTextLayer" font-family="Cambria" font-size="12" font-weight="normal" fill="#4A4A4A">
                <tspan x="131" y="317">[*]</tspan>
            </text>
            <text id="[1]" sketch:type="MSTextLayer" font-family="Cambria" font-size="12" font-weight="normal" fill="#4A4A4A">
                <tspan x="143" y="194">[1]</tspan>
            </text>
            <text id="[1]-9" sketch:type="MSTextLayer" font-family="Cambria" font-size="12" font-weight="normal" fill="#4A4A4A">
                <tspan x="143" y="151">[1]</tspan>
            </text>
            <text id="[*]" sketch:type="MSTextLayer" font-family="Cambria" font-size="12" font-weight="normal" fill="#4A4A4A">
                <tspan x="223" y="226">[*]</tspan>
            </text>
            <text id="[*]-11" sketch:type="MSTextLayer" font-family="Cambria" font-size="12" font-weight="normal" fill="#4A4A4A">
                <tspan x="440.99237" y="151">[*]</tspan>
            </text>
            <text id="[*]-12" sketch:type="MSTextLayer" font-family="Cambria" font-size="12" font-weight="normal" fill="#4A4A4A">
                <tspan x="525" y="119">[*]</tspan>
            </text>
            <text id="[*]-13" sketch:type="MSTextLayer" font-family="Cambria" font-size="12" font-weight="normal" fill="#4A4A4A">
                <tspan x="555" y="119">[*]</tspan>
            </text>
            <text id="[*]-15" sketch:type="MSTextLayer" font-family="Cambria" font-size="12" font-weight="normal" fill="#4A4A4A">
                <tspan x="643" y="137">[*]</tspan>
            </text>
            <text id="[*]-17" sketch:type="MSTextLayer" font-family="Cambria" font-size="12" font-weight="normal" fill="#4A4A4A">
                <tspan x="723" y="123">[*]</tspan>
            </text>
            <text id="[*]-18" sketch:type="MSTextLayer" font-family="Cambria" font-size="12" font-weight="normal" fill="#4A4A4A">
                <tspan x="770.99237" y="139">[*]</tspan>
            </text>
            <text id="[*]-19" sketch:type="MSTextLayer" font-family="Cambria" font-size="12" font-weight="normal" fill="#4A4A4A">
                <tspan x="770.99237" y="190">[*]</tspan>
            </text>
            <text id="[*]-20" sketch:type="MSTextLayer" font-family="Cambria" font-size="12" font-weight="normal" fill="#4A4A4A">
                <tspan x="719.99237" y="190">[*]</tspan>
            </text>
            <text id="[*]-21" sketch:type="MSTextLayer" font-family="Cambria" font-size="12" font-weight="normal" fill="#4A4A4A">
                <tspan x="687.99237" y="386">[*]</tspan>
            </text>
            <text id="[*]-22" sketch:type="MSTextLayer" font-family="Cambria" font-size="12" font-weight="normal" fill="#4A4A4A">
                <tspan x="634.99237" y="355">[*]</tspan>
            </text>
            <text id="[*]-23" sketch:type="MSTextLayer" font-family="Cambria" font-size="12" font-weight="normal" fill="#4A4A4A">
                <tspan x="628.99237" y="323">[*]</tspan>
            </text>
            <text id="[*]-24" sketch:type="MSTextLayer" font-family="Cambria" font-size="12" font-weight="normal" fill="#4A4A4A">
                <tspan x="654.99237" y="311">[*]</tspan>
            </text>
            <text id="[1]" sketch:type="MSTextLayer" font-family="Cambria" font-size="12" font-weight="normal" fill="#4A4A4A">
                <tspan x="582.99237" y="303">[1]</tspan>
            </text>
            <text id="[1]-14" sketch:type="MSTextLayer" font-family="Cambria" font-size="12" font-weight="normal" fill="#4A4A4A">
                <tspan x="582.99237" y="275">[1]</tspan>
            </text>
            <text id="[0..1]" sketch:type="MSTextLayer" font-family="Cambria" font-size="12" font-weight="normal" fill="#4A4A4A">
                <tspan x="721" y="78">[0..1]</tspan>
            </text>
            <text id="[0..1]-3" sketch:type="MSTextLayer" font-family="Cambria" font-size="12" font-weight="normal" fill="#4A4A4A">
                <tspan x="617" y="198">[0..1]</tspan>
            </text>
            <text id="[0..1]-4" sketch:type="MSTextLayer" font-family="Cambria" font-size="12" font-weight="normal" fill="#4A4A4A">
                <tspan x="547" y="248">[0..1]</tspan>
            </text>
            <text id="[0..1]-2" sketch:type="MSTextLayer" font-family="Cambria" font-size="12" font-weight="normal" fill="#4A4A4A">
                <tspan x="721" y="308">[0..1]</tspan>
            </text>
            <text id="[1]" sketch:type="MSTextLayer" font-family="Cambria" font-size="12" font-weight="normal" fill="#4A4A4A">
                <tspan x="446" y="118.5">[1]</tspan>
            </text>
            <text id="[1]-10" sketch:type="MSTextLayer" font-family="Cambria" font-size="12" font-weight="normal" fill="#4A4A4A">
                <tspan x="567.00763" y="137.5">[1]</tspan>
            </text>
            <text id="[*]-16" sketch:type="MSTextLayer" font-family="Cambria" font-size="12" font-weight="normal" fill="#4A4A4A">
                <tspan x="625" y="161">[*]</tspan>
            </text>
            <text id="[1]-11" sketch:type="MSTextLayer" font-family="Cambria" font-size="12" font-weight="normal" fill="#4A4A4A">
                <tspan x="583" y="161.5">[1]</tspan>
            </text>
            <text id="[*]-14" sketch:type="MSTextLayer" font-family="Cambria" font-size="12" font-weight="normal" fill="#4A4A4A">
                <tspan x="490" y="119">[*]</tspan>
            </text>
            <text id="[*]-9" sketch:type="MSTextLayer" font-family="Cambria" font-size="12" font-weight="normal" fill="#4A4A4A">
                <tspan x="332" y="251.092427">[*]</tspan>
            </text>
            <text id="[*]-6" sketch:type="MSTextLayer" font-family="Cambria" font-size="12" font-weight="normal" fill="#4A4A4A">
                <tspan x="259" y="306">[*]</tspan>
            </text>
            <text id="[*]-10" sketch:type="MSTextLayer" font-family="Cambria" font-size="12" font-weight="normal" fill="#4A4A4A">
                <tspan x="440.535325" y="185">[*]</tspan>
            </text>
            <text id="[1]" sketch:type="MSTextLayer" font-family="Cambria" font-size="12" font-weight="normal" fill="#4A4A4A">
                <tspan x="222" y="366">[1]</tspan>
            </text>
            <text id="[1]-3" sketch:type="MSTextLayer" font-family="Cambria" font-size="12" font-weight="normal" fill="#4A4A4A">
                <tspan x="307" y="369">[1]</tspan>
            </text>
            <text id="[1]-12" sketch:type="MSTextLayer" font-family="Cambria" font-size="12" font-weight="normal" fill="#4A4A4A">
                <tspan x="568" y="427">[1]</tspan>
            </text>
            <text id="[1]-13" sketch:type="MSTextLayer" font-family="Cambria" font-size="12" font-weight="normal" fill="#4A4A4A">
                <tspan x="568" y="376">[1]</tspan>
            </text>
            <text id="[1]-5" sketch:type="MSTextLayer" font-family="Cambria" font-size="12" font-weight="normal" fill="#4A4A4A">
                <tspan x="350" y="341">[1]</tspan>
            </text>
            <text id="[1]-6" sketch:type="MSTextLayer" font-family="Cambria" font-size="12" font-weight="normal" fill="#4A4A4A">
                <tspan x="350" y="314">[1]</tspan>
            </text>
            <text id="[1]-7" sketch:type="MSTextLayer" font-family="Cambria" font-size="12" font-weight="normal" fill="#4A4A4A">
                <tspan x="331" y="299">[1]</tspan>
            </text>
            <text id="[1]-8" sketch:type="MSTextLayer" font-family="Cambria" font-size="12" font-weight="normal" fill="#4A4A4A">
                <tspan x="374" y="214">[1]</tspan>
            </text>
            <text id="[1]-2" sketch:type="MSTextLayer" font-family="Cambria" font-size="12" font-weight="normal" fill="#4A4A4A">
                <tspan x="222" y="316">[1]</tspan>
            </text>
            <text id="[1]-4" sketch:type="MSTextLayer" font-family="Cambria" font-size="12" font-weight="normal" fill="#4A4A4A">
                <tspan x="285" y="307">[1]</tspan>
            </text>
            <g id="Collection-Subclass-arrow" sketch:type="MSLayerGroup" transform="translate(673.000000, 55.000000)" stroke="#000000">
                <path d="M15.0491306,73.9499102 L7.86944729,83.2549181 L0.369397568,74.2061459 L15.0491306,73.9499102 Z" id="Triangle-1" sketch:type="MSShapeGroup"></path>
                <path d="M7.5,73.5 L7.5,1.5" id="Line" stroke-linecap="square" sketch:type="MSShapeGroup"></path>
            </g>
            <g id="Workflow-Subclass-arrow" sketch:type="MSLayerGroup" transform="translate(279.500000, 399.000000) rotate(-180.000000) translate(-279.500000, -399.000000) translate(272.000000, 358.000000)" stroke="#000000">
                <path d="M15.0491306,72.9499102 L7.86944729,82.2549181 L0.369397568,73.2061459 L15.0491306,72.9499102 Z" id="Triangle-1" sketch:type="MSShapeGroup"></path>
                <path d="M7.5,72.5 L7.5,-15.5056816" id="Line" stroke-linecap="square" sketch:type="MSShapeGroup"></path>
            </g>
            <text id="«wasInformedBy»" sketch:type="MSTextLayer" font-family="Cambria" font-size="12" font-weight="normal" fill="#000000">
                <tspan x="515" y="96.5">«</tspan>
                <tspan x="520.853516" y="96.5">wasInformedBy</tspan>
                <tspan x="602.105469" y="96.5" font-style="italic">»</tspan>
            </text>
            <g id="used-arrow" sketch:type="MSLayerGroup" transform="translate(599.000000, 148.000000) rotate(270.000000) translate(-599.000000, -148.000000) translate(592.500000, 85.000000)" stroke="#000000">
                <path d="M6.5,116.5 L6.5,23.4986559" id="Line-2" stroke-linecap="square" sketch:type="MSShapeGroup"></path>
                <path d="M6.5,125.621212 C8.6756672,125.621212 10.4393939,123.830351 10.4393939,121.621212 C10.4393939,119.412073 8.6756672,117.621212 6.5,117.621212 C4.3243328,117.621212 2.56060606,119.412073 2.56060606,121.621212 C2.56060606,123.830351 4.3243328,125.621212 6.5,125.621212 Z" id="Oval-1" fill="#000000" sketch:type="MSShapeGroup" transform="translate(6.500000, 121.621212) rotate(-90.000000) translate(-6.500000, -121.621212) "></path>
                <path d="M0.0898336502,116.787052 L6.4306659,103.910285 L12.7714981,116.787052" id="Triangle-1" sketch:type="MSShapeGroup" transform="translate(6.430666, 110.348668) rotate(-181.000000) translate(-6.430666, -110.348668) "></path>
            </g>
            <g id="wasGeneratedBy-arrow" sketch:type="MSLayerGroup" transform="translate(611.500000, 166.500000) rotate(90.000000) translate(-611.500000, -166.500000) translate(605.000000, 114.000000)" stroke="#000000">
                <path d="M6.5,95.5 L6.5,1.5" id="Line-2" stroke-linecap="square" sketch:type="MSShapeGroup"></path>
                <path d="M6.5,104.621212 C8.6756672,104.621212 10.4393939,102.830351 10.4393939,100.621212 C10.4393939,98.4120731 8.6756672,96.6212121 6.5,96.6212121 C4.3243328,96.6212121 2.56060606,98.4120731 2.56060606,100.621212 C2.56060606,102.830351 4.3243328,104.621212 6.5,104.621212 Z" id="Oval-1" fill="#000000" sketch:type="MSShapeGroup" transform="translate(6.500000, 100.621212) rotate(-90.000000) translate(-6.500000, -100.621212) "></path>
                <path d="M0.0898336502,95.7870518 L6.4306659,82.9102848 L12.7714981,95.7870518" id="Triangle-1" sketch:type="MSShapeGroup" transform="translate(6.430666, 89.348668) rotate(-181.000000) translate(-6.430666, -89.348668) "></path>
            </g>
            <g id="hadPlan-arrow" sketch:type="MSLayerGroup" transform="translate(316.000000, 178.000000)" stroke="#000000">
                <path d="M6.5,132.5 L6.5,60.2504325" id="Line-2" stroke-linecap="square" sketch:type="MSShapeGroup"></path>
                <path d="M6.5,141.621212 C8.6756672,141.621212 10.4393939,139.830351 10.4393939,137.621212 C10.4393939,135.412073 8.6756672,133.621212 6.5,133.621212 C4.3243328,133.621212 2.56060606,135.412073 2.56060606,137.621212 C2.56060606,139.830351 4.3243328,141.621212 6.5,141.621212 Z" id="Oval-1" fill="#000000" sketch:type="MSShapeGroup" transform="translate(6.500000, 137.621212) rotate(-90.000000) translate(-6.500000, -137.621212) "></path>
                <path d="M0.0898336502,132.787052 L6.4306659,119.910285 L12.7714981,132.787052" id="Triangle-1" sketch:type="MSShapeGroup" transform="translate(6.430666, 126.348668) rotate(-181.000000) translate(-6.430666, -126.348668) "></path>
            </g>
            <g id="hasInPort-arrow" sketch:type="MSLayerGroup" transform="translate(399.629682, 304.264986) rotate(246.000000) translate(-399.629682, -304.264986) translate(393.129682, 239.764986)" stroke="#000000">
                <path d="M6.5,119.5 L6.5,3.87080787" id="Line-2" stroke-linecap="square" sketch:type="MSShapeGroup"></path>
                <path d="M6.5,128.621212 C8.6756672,128.621212 10.4393939,126.830351 10.4393939,124.621212 C10.4393939,122.412073 8.6756672,120.621212 6.5,120.621212 C4.3243328,120.621212 2.56060606,122.412073 2.56060606,124.621212 C2.56060606,126.830351 4.3243328,128.621212 6.5,128.621212 Z" id="Oval-1" fill="#000000" sketch:type="MSShapeGroup" transform="translate(6.500000, 124.621212) rotate(-90.000000) translate(-6.500000, -124.621212) "></path>
                <path d="M0.0898336502,119.787052 L6.4306659,106.910285 L12.7714981,119.787052" id="Triangle-1" sketch:type="MSShapeGroup" transform="translate(6.430666, 113.348668) rotate(-181.000000) translate(-6.430666, -113.348668) "></path>
            </g>
        </g>
    </g>
</svg>