<?xml version="1.0" encoding="UTF-8" standalone="no"?>
<svg width="5500px" height="3000px" viewBox="0 0 5500 3000" version="1.1" xmlns="http://www.w3.org/2000/svg" xmlns:xlink="http://www.w3.org/1999/xlink" xmlns:sketch="http://www.bohemiancoding.com/sketch/ns">
    <!-- Generator: Sketch 3.1.1 (8761) - http://www.bohemiancoding.com/sketch -->
    <title>Artboard</title>
    <desc>Created with Sketch.</desc>
    <defs>
        <path id="path-1" d="M0,19.894 C0,9.07 9.156,0 19.9805,0 L800.7817,0 C811.6061,0 820,9.07 820,19.894 L820,176.69 C820,187.514 811.6061,196 800.7817,196 L19.9805,196 C9.156,196 0.3811,187.514 0.3811,176.69 L0,19.894 Z"></path>
    </defs>
    <g id="Page-1" stroke="none" stroke-width="1" fill="none" fill-rule="evenodd" sketch:type="MSPage">
        <g id="Artboard" sketch:type="MSArtboardGroup">
            <path d="M3097.05,194.5 L3763.05,194.5 L3763.05,1809.5 L3097.05,1809.5 L3097.05,194.5 Z" id="Fill-4" fill="#DDDEE0" sketch:type="MSShapeGroup"></path>
            <path d="M3097.04974,194.499979 L3763.0497,194.499979 L3763.0497,1809.5 L3097.04974,1809.5 L3097.04974,194.499979 Z" id="Stroke-5" stroke="#85888D" stroke-width="3" sketch:type="MSShapeGroup"></path>
            <path d="M3116.914,980.848 C3128.484,992.417 3128.484,1011.175 3116.914,1022.744 C3105.345,1034.313 3086.588,1034.313 3075.018,1022.744 C3063.449,1011.175 3063.449,992.417 3075.018,980.848 C3086.588,969.278 3105.345,969.278 3116.914,980.848 L3116.914,980.848 Z" id="Fill-6" fill="#FFFFFF" sketch:type="MSShapeGroup"></path>
            <path d="M3116.91404,980.847961 C3128.48332,992.41724 3128.48332,1011.17475 3116.91404,1022.74404 C3105.34475,1034.31332 3086.58724,1034.31332 3075.01796,1022.74404 C3063.44868,1011.17475 3063.44868,992.41724 3075.01796,980.847961 C3086.58724,969.27868 3105.34475,969.27868 3116.91404,980.847961 L3116.91404,980.847961 Z" id="Stroke-7" stroke="#85888D" stroke-width="3" sketch:type="MSShapeGroup"></path>
            <path d="M3058.55,969 L3095.55,969 L3095.55,1034 L3058.55,1034 L3058.55,969 Z" id="Fill-8" fill="#FFFFFF" sketch:type="MSShapeGroup"></path>
            <path d="M3108,989.964 C3114.379,996.475 3114.379,1007.033 3108,1013.545 C3101.621,1020.057 3091.278,1020.057 3084.899,1013.545 C3078.52,1007.033 3078.52,996.475 3084.899,989.964 C3091.278,983.452 3101.621,983.452 3108,989.964 L3108,989.964 Z" id="Fill-9" fill="#F2CA00" sketch:type="MSShapeGroup"></path>
            <path d="M3108.00052,989.963881 C3114.37972,996.47572 3114.37972,1007.0335 3108.00052,1013.54534 C3101.62132,1020.05719 3091.2786,1020.05719 3084.8994,1013.54534 C3078.5202,1007.0335 3078.5202,996.47572 3084.8994,989.963881 C3091.2786,983.45204 3101.62132,983.45204 3108.00052,989.963881 L3108.00052,989.963881 Z" id="Stroke-10" stroke="#F2CA00" stroke-width="3" sketch:type="MSShapeGroup"></path>
            <path d="M1343.05,700.5 L1883.05,700.5 L1883.05,1301.5 L1343.05,1301.5 L1343.05,700.5 Z" id="Fill-11" fill="#DDDEE0" sketch:type="MSShapeGroup"></path>
            <path d="M1343.04976,700.500364 L1883.0498,700.500364 L1883.0498,1301.5004 L1343.04976,1301.5004 L1343.04976,700.500364 Z" id="Stroke-12" stroke="#85888D" stroke-width="3" sketch:type="MSShapeGroup"></path>
            <text id="20+-" sketch:type="MSTextLayer" font-family="Helvetica" font-size="72" font-weight="260" fill="#000000">
                <tspan x="1549.695" y="895.226">20+ </tspan>
            </text>
            <text id="Terrestrial-" sketch:type="MSTextLayer" font-family="Helvetica" font-size="72" font-weight="260" letter-spacing="-7.992" fill="#000000">
                <tspan x="1458.111" y="981.226">T</tspan>
                <tspan x="1483.9635" y="981.226">er</tspan>
                <tspan x="1547.9715" y="981.226" letter-spacing="-1.296">r</tspan>
                <tspan x="1569.3555" y="981.226">estrial </tspan>
            </text>
            <text id="Biospheric-" sketch:type="MSTextLayer" font-family="Helvetica" font-size="72" font-weight="260" fill="#000000">
                <tspan x="1441.443" y="1067.226">Biospheric </tspan>
            </text>
            <text id="Models" sketch:type="MSTextLayer" font-family="Helvetica" font-size="72" font-weight="260" fill="#000000">
                <tspan x="1495.479" y="1153.226">Models</tspan>
            </text>
            <path d="M1362.914,980.802 C1374.484,992.371 1374.484,1011.129 1362.914,1022.698 C1351.345,1034.267 1332.587,1034.267 1321.018,1022.698 C1309.449,1011.129 1309.449,992.371 1321.018,980.802 C1332.587,969.233 1351.345,969.233 1362.914,980.802 L1362.914,980.802 Z" id="Fill-19" fill="#FFFFFF" sketch:type="MSShapeGroup"></path>
            <path d="M1362.91404,980.801961 C1374.48332,992.37124 1374.48332,1011.12875 1362.91404,1022.69804 C1351.34475,1034.26732 1332.58724,1034.26732 1321.01796,1022.69804 C1309.44868,1011.12875 1309.44868,992.37124 1321.01796,980.801961 C1332.58724,969.23268 1351.34475,969.23268 1362.91404,980.801961 L1362.91404,980.801961 Z" id="Stroke-21" stroke="#85888D" stroke-width="3" sketch:type="MSShapeGroup"></path>
            <path d="M1304.55,969 L1341.55,969 L1341.55,1034 L1304.55,1034 L1304.55,969 Z" id="Fill-22" fill="#FFFFFF" sketch:type="MSShapeGroup"></path>
            <path d="M1354,989.918 C1360.379,996.43 1360.379,1006.987 1354,1013.499 C1347.621,1020.011 1337.278,1020.011 1330.899,1013.499 C1324.52,1006.987 1324.52,996.43 1330.899,989.918 C1337.278,983.406 1347.621,983.406 1354,989.918 L1354,989.918 Z" id="Fill-23" fill="#F2CA00" sketch:type="MSShapeGroup"></path>
            <path d="M1354.00052,989.917881 C1360.37972,996.42972 1360.37972,1006.9875 1354.00052,1013.49934 C1347.62132,1020.01119 1337.2786,1020.01119 1330.8994,1013.49934 C1324.5202,1006.9875 1324.5202,996.42972 1330.8994,989.917881 C1337.2786,983.40604 1347.62132,983.40604 1354.00052,989.917881 L1354.00052,989.917881 Z" id="Stroke-24" stroke="#F2CA00" stroke-width="3" sketch:type="MSShapeGroup"></path>
            <path d="M1299,1002 L1201.28114,1002 L1201.28114,291 L1054.55,291" id="Stroke-25" stroke="#F2CA00" stroke-width="15" stroke-linecap="round" stroke-dasharray="1,45" sketch:type="MSShapeGroup"></path>
            <path d="M1299,1717.796 L1201.28114,1717.796 L1201.28114,1000.796 L1054.55,1000.796" id="Stroke-26" stroke="#F2CA00" stroke-width="15" stroke-linecap="round" stroke-dasharray="1,45" sketch:type="MSShapeGroup" transform="translate(1176.775000, 1359.296000) scale(1, -1) translate(-1176.775000, -1359.296000) "></path>
            <text id="Consistent-" sketch:type="MSTextLayer" font-family="Helvetica" font-size="72" font-weight="260" sketch:alignment="middle" fill="#000000">
                <tspan x="1443.023" y="1413.00076">Consistent </tspan>
                <tspan x="1451.051" y="1499.00076">simulation </tspan>
                <tspan x="1482.335" y="1585.00076">p</tspan>
                <tspan x="1526.327" y="1585.00076" letter-spacing="-1.296">r</tspan>
                <tspan x="1547.711" y="1585.00076">otocol</tspan>
            </text>
            <path d="M3164.05,679 L3164.05,497.843 C3164.05,487.172 3172.655,478.5 3183.327,478.5 L3687.723,478.5 C3698.395,478.5 3707.05,487.172 3707.05,497.843 L3707.05,679.199 C3707.05,689.87 3698.395,698.5 3687.723,698.5 L3183.327,698.5 C3172.655,698.5 3164.05,689.671 3164.05,679 L3164.05,679 Z" id="Fill-27" fill="#FFFFFF" sketch:type="MSShapeGroup"></path>
            <path d="M3164.0495,679 L3164.0495,497.84305 C3164.0495,487.171776 3172.65478,478.499951 3183.32605,478.499951 L3687.723,478.499951 C3698.3942,478.499951 3707.0495,487.171776 3707.0495,497.84305 L3707.0495,679.1989 C3707.0495,689.8702 3698.3942,698.5 3687.723,698.5 L3183.32605,698.5 C3172.65478,698.5 3164.0495,689.6712 3164.0495,679 L3164.0495,679 Z" id="Stroke-28" stroke="#85888D" stroke-width="3" sketch:type="MSShapeGroup"></path>
            <text id="SG1" sketch:type="MSTextLayer" font-family="Helvetica" font-size="72" font-weight="260" fill="#000000">
                <tspan x="3365.5" y="611.704">SG1</tspan>
            </text>
            <path d="M3164.05,955 L3164.05,774.273 C3164.05,763.449 3172.779,754.5 3183.604,754.5 L3687.446,754.5 C3698.271,754.5 3707.05,763.449 3707.05,774.273 L3707.05,955.074 C3707.05,965.899 3698.271,974.5 3687.446,974.5 L3183.604,974.5 C3172.779,974.5 3164.05,965.824 3164.05,955 L3164.05,955 Z" id="Fill-31" fill="#FFFFFF" sketch:type="MSShapeGroup"></path>
            <path d="M3164.0495,955.0003 L3164.0495,774.27339 C3164.0495,763.448948 3172.77895,754.500292 3183.60339,754.500292 L3687.4456,754.500292 C3698.2701,754.500292 3707.0495,763.448948 3707.0495,774.27339 L3707.0495,955.0746 C3707.0495,965.8991 3698.2701,974.5003 3687.4456,974.5003 L3183.60339,974.5003 C3172.77895,974.5003 3164.0495,965.8247 3164.0495,955.0003 L3164.0495,955.0003 Z" id="Stroke-33" stroke="#85888D" stroke-width="3" sketch:type="MSShapeGroup"></path>
            <text id="SG2" sketch:type="MSTextLayer" font-family="Helvetica" font-size="72" font-weight="260" fill="#000000">
                <tspan x="3365.5" y="887.856">SG2</tspan>
            </text>
            <path d="M3164.05,1231 L3164.05,1050.426 C3164.05,1039.601 3172.779,1030.5 3183.604,1030.5 L3687.446,1030.5 C3698.271,1030.5 3707.05,1039.601 3707.05,1050.426 L3707.05,1231.227 C3707.05,1242.051 3698.271,1250.5 3687.446,1250.5 L3183.604,1250.5 C3172.779,1250.5 3164.05,1241.824 3164.05,1231 L3164.05,1231 Z" id="Fill-36" fill="#FFFFFF" sketch:type="MSShapeGroup"></path>
            <path d="M3164.0495,1230.9996 L3164.0495,1050.42539 C3164.0495,1039.60095 3172.77895,1030.49963 3183.60339,1030.49963 L3687.4456,1030.49963 C3698.2701,1030.49963 3707.0495,1039.60095 3707.0495,1050.42539 L3707.0495,1231.2266 C3707.0495,1242.0511 3698.2701,1250.4996 3687.4456,1250.4996 L3183.60339,1250.4996 C3172.77895,1250.4996 3164.0495,1241.8241 3164.0495,1230.9996 L3164.0495,1230.9996 Z" id="Stroke-38" stroke="#85888D" stroke-width="3" sketch:type="MSShapeGroup"></path>
            <text id="SG3" sketch:type="MSTextLayer" font-family="Helvetica" font-size="72" font-weight="260" fill="#000000">
                <tspan x="3365.5" y="1164.009">SG3</tspan>
            </text>
            <path d="M3164.05,1507 L3164.05,1326.5784 C3164.05,1315.754 3172.779,1306.5 3183.604,1306.5 L3687.446,1306.5 C3698.271,1306.5 3707.05,1315.754 3707.05,1326.5784 L3707.05,1507.3796 C3707.05,1518.2041 3698.271,1526.5 3687.446,1526.5 L3183.604,1526.5 C3172.779,1526.5 3164.05,1517.8244 3164.05,1507 L3164.05,1507 Z" id="Fill-41" fill="#FFFFFF" sketch:type="MSShapeGroup"></path>
            <path d="M3164.0495,1507 L3164.0495,1326.57839 C3164.0495,1315.75395 3172.77895,1306.49997 3183.60339,1306.49997 L3687.4456,1306.49997 C3698.2701,1306.49997 3707.0495,1315.75395 3707.0495,1326.57839 L3707.0495,1507.3796 C3707.0495,1518.2041 3698.2701,1526.5 3687.4456,1526.5 L3183.60339,1526.5 C3172.77895,1526.5 3164.0495,1517.8244 3164.0495,1507 L3164.0495,1507 Z" id="Stroke-43" stroke="#85888D" stroke-width="3" sketch:type="MSShapeGroup"></path>
            <text id="BG1" sketch:type="MSTextLayer" font-family="Helvetica" font-size="72" font-weight="260" fill="#000000">
                <tspan x="3363.484" y="1440.1615">BG1</tspan>
            </text>
            <g id="Group-48" sketch:type="MSLayerGroup" transform="translate(3237.550000, 231.000000)" font-size="72" font-family="Helvetica" fill="#000000" font-weight="260">
                <text id="Global-" sketch:type="MSTextLayer">
                    <tspan x="77.798" y="69.272">Global </tspan>
                </text>
                <text id="Simulations" sketch:type="MSTextLayer">
                    <tspan x="-0.214" y="155.272">Simulations</tspan>
                </text>
            </g>
            <path d="M3305.376,949.1 L3305.55,922.558 C3305.55,915.866 3310.8,910 3317.492,910 L3409.252,910 C3415.943,910 3421.55,915.866 3421.55,922.558 L3421.55,949.1 C3421.55,955.792 3415.943,961 3409.252,961 L3317.492,961 C3310.8,961 3305.376,955.792 3305.376,949.1 L3305.376,949.1 Z" id="Fill-51" fill="#5F327C" sketch:type="MSShapeGroup"></path>
            <path d="M3175.376,949.1 L3175.55,922.558 C3175.55,915.866 3180.8,910 3187.492,910 L3279.252,910 C3285.943,910 3291.55,915.866 3291.55,922.558 L3291.55,949.1 C3291.55,955.792 3285.943,961 3279.252,961 L3187.492,961 C3180.8,961 3175.376,955.792 3175.376,949.1 L3175.376,949.1 Z" id="Fill-52" fill="#A84031" sketch:type="MSShapeGroup"></path>
            <path d="M3175.376,672.1 L3175.55,645.558 C3175.55,638.866 3180.8,633 3187.492,633 L3279.252,633 C3285.943,633 3291.55,638.866 3291.55,645.558 L3291.55,672.1 C3291.55,678.792 3285.943,684 3279.252,684 L3187.492,684 C3180.8,684 3175.376,678.792 3175.376,672.1 L3175.376,672.1 Z" id="Fill-53" fill="#A84031" sketch:type="MSShapeGroup"></path>
            <path d="M3175.376,1224.1 L3175.55,1197.558 C3175.55,1190.866 3180.8,1185 3187.492,1185 L3279.252,1185 C3285.943,1185 3291.55,1190.866 3291.55,1197.558 L3291.55,1224.1 C3291.55,1230.792 3285.943,1236 3279.252,1236 L3187.492,1236 C3180.8,1236 3175.376,1230.792 3175.376,1224.1 L3175.376,1224.1 Z" id="Fill-55" fill="#A84031" sketch:type="MSShapeGroup"></path>
            <path d="M3175.376,1499.1 L3175.55,1472.558 C3175.55,1465.866 3180.8,1460 3187.492,1460 L3279.252,1460 C3285.943,1460 3291.55,1465.866 3291.55,1472.558 L3291.55,1499.1 C3291.55,1505.792 3285.943,1511 3279.252,1511 L3187.492,1511 C3180.8,1511 3175.376,1505.792 3175.376,1499.1 L3175.376,1499.1 Z" id="Fill-57" fill="#A84031" sketch:type="MSShapeGroup"></path>
            <path d="M3305.376,1223.793 L3305.55,1197.25 C3305.55,1190.559 3310.8,1185 3317.492,1185 L3409.252,1185 C3415.943,1185 3421.55,1190.559 3421.55,1197.25 L3421.55,1223.793 C3421.55,1230.484 3415.943,1236 3409.252,1236 L3317.492,1236 C3310.8,1236 3305.376,1230.484 3305.376,1223.793 L3305.376,1223.793 Z" id="Fill-54" fill="#5F327C" sketch:type="MSShapeGroup"></path>
            <path d="M3438.709,1223.793 L3438.55,1197.25 C3438.55,1190.559 3444.134,1185 3450.825,1185 L3542.585,1185 C3549.277,1185 3554.55,1190.559 3554.55,1197.25 L3554.55,1223.793 C3554.55,1230.484 3549.277,1236 3542.585,1236 L3450.825,1236 C3444.134,1236 3438.709,1230.484 3438.709,1223.793 L3438.709,1223.793 Z" id="Fill-56" fill="#F49018" sketch:type="MSShapeGroup"></path>
            <path d="M3305.376,1498.5767 L3305.55,1472.034 C3305.55,1465.3425 3310.8,1460 3317.492,1460 L3409.252,1460 C3415.943,1460 3421.55,1465.3425 3421.55,1472.034 L3421.55,1498.5767 C3421.55,1505.2682 3415.943,1511 3409.252,1511 L3317.492,1511 C3310.8,1511 3305.376,1505.2682 3305.376,1498.5767 L3305.376,1498.5767 Z" id="Fill-59" fill="#5F327C" sketch:type="MSShapeGroup"></path>
            <path d="M3438.709,1498.5767 L3438.55,1472.034 C3438.55,1465.3425 3444.134,1460 3450.825,1460 L3542.585,1460 C3549.277,1460 3554.55,1465.3425 3554.55,1472.034 L3554.55,1498.5767 C3554.55,1505.2682 3549.277,1511 3542.585,1511 L3450.825,1511 C3444.134,1511 3438.709,1505.2682 3438.709,1498.5767 L3438.709,1498.5767 Z" id="Fill-61" fill="#F49018" sketch:type="MSShapeGroup"></path>
            <path d="M3572.042,1498.5767 L3572.55,1472.034 C3572.55,1465.3425 3577.467,1460 3584.158,1460 L3675.919,1460 C3682.61,1460 3687.55,1465.3425 3687.55,1472.034 L3687.55,1498.5767 C3687.55,1505.2682 3682.61,1511 3675.919,1511 L3584.158,1511 C3577.467,1511 3572.042,1505.2682 3572.042,1498.5767 L3572.042,1498.5767 Z" id="Fill-62" fill="#C39719" sketch:type="MSShapeGroup"></path>
            <g id="Group-71" sketch:type="MSLayerGroup" transform="translate(234.550000, 193.000000)">
                <mask id="mask-2" sketch:name="Clip 70" fill="white">
                    <use xlink:href="#path-1"></use>
                </mask>
                <g id="Clip-70"></g>
                <path d="M0,196 L820,196 L820,0 L0,0 L0,196 Z" id="Fill-69" fill="#A84031" sketch:type="MSShapeGroup" mask="url(#mask-2)"></path>
            </g>
            <text id="Climatology" sketch:type="MSTextLayer" font-family="Helvetica" font-size="72" font-weight="260" fill="#FFFFFF">
                <tspan x="454.9231" y="314.61">Climatology</tspan>
            </text>
            <path d="M234.9311,606.842 L234.55,450.047 C234.55,439.223 243.706,430 254.5305,430 L1035.3317,430 C1046.1561,430 1054.55,439.223 1054.55,450.047 L1054.55,606.842 C1054.55,617.667 1046.1561,626 1035.3317,626 L254.5305,626 C243.706,626 234.9311,617.667 234.9311,606.842 L234.9311,606.842 Z" id="Fill-73" fill="#F49018" sketch:type="MSShapeGroup"></path>
            <g id="Group-77" sketch:type="MSLayerGroup" transform="translate(363.550000, 483.000000)" font-family="Helvetica" fill="#FFFFFF" font-weight="260">
                <text id="Atmospheric-CO" sketch:type="MSTextLayer" font-size="72">
                    <tspan x="-0.0189" y="68.763">Atmospheric CO</tspan>
                </text>
                <text id="2" sketch:type="MSTextLayer" font-size="48">
                    <tspan x="536.0931" y="76.282897">2</tspan>
                </text>
            </g>
            <path d="M234.9311,843.995 L234.55,687.2 C234.55,676.375 243.706,668 254.5305,668 L1035.3317,668 C1046.1561,668 1054.55,676.375 1054.55,687.2 L1054.55,843.995 C1054.55,854.819 1046.1561,864 1035.3317,864 L254.5305,864 C243.706,864 234.9311,854.819 234.9311,843.995 L234.9311,843.995 Z" id="Fill-78" fill="#C39719" sketch:type="MSShapeGroup"></path>
            <text id="Nitrogen-Deposition" sketch:type="MSTextLayer" font-family="Helvetica" font-size="72" font-weight="260" fill="#FFFFFF">
                <tspan x="325.5031" y="788.916">Nit</tspan>
                <tspan x="413.4871" y="788.916" letter-spacing="-1.296">r</tspan>
                <tspan x="434.8711" y="788.916">ogen Deposition</tspan>
            </text>
            <path d="M234.9311,1081.148 L234.55,924.352 C234.55,913.528 243.706,905 254.5305,905 L1035.3317,905 C1046.1561,905 1054.55,913.528 1054.55,924.352 L1054.55,1081.148 C1054.55,1091.972 1046.1561,1101 1035.3317,1101 L254.5305,1101 C243.706,1101 234.9311,1091.972 234.9311,1081.148 L234.9311,1081.148 Z" id="Fill-81" fill="#054109" sketch:type="MSShapeGroup"></path>
            <text id="Soil-Properties" sketch:type="MSTextLayer" font-family="Helvetica" font-size="72" font-weight="260" fill="#FFFFFF">
                <tspan x="412.9111" y="1026.068">Soil P</tspan>
                <tspan x="592.9111" y="1026.068" letter-spacing="-1.296">r</tspan>
                <tspan x="614.2951" y="1026.068">ope</tspan>
                <tspan x="738.3511" y="1026.068" letter-spacing="1.296">r</tspan>
                <tspan x="764.9191" y="1026.068">ties</tspan>
            </text>
            <path d="M234.9311,1318.3003 L234.55,1161.505 C234.55,1150.681 243.706,1142 254.5305,1142 L1035.3317,1142 C1046.1561,1142 1054.55,1150.681 1054.55,1161.505 L1054.55,1318.3003 C1054.55,1329.1247 1046.1561,1338 1035.3317,1338 L254.5305,1338 C243.706,1338 234.9311,1329.1247 234.9311,1318.3003 L234.9311,1318.3003 Z" id="Fill-84" fill="#164F86" sketch:type="MSShapeGroup"></path>
            <text id="Phenology" sketch:type="MSTextLayer" font-family="Helvetica" font-size="72" font-weight="260" fill="#FFFFFF">
                <tspan x="474.8671" y="1263.221">Phenology</tspan>
            </text>
            <path d="M234.9311,1555.4529 L234.55,1398.6578 C234.55,1387.8333 243.706,1379 254.5305,1379 L1035.3317,1379 C1046.1561,1379 1054.55,1387.8333 1054.55,1398.6578 L1054.55,1555.4529 C1054.55,1566.2774 1046.1561,1575 1035.3317,1575 L254.5305,1575 C243.706,1575 234.9311,1566.2774 234.9311,1555.4529 L234.9311,1555.4529 Z" id="Fill-87" fill="#002452" sketch:type="MSShapeGroup"></path>
            <g id="Group-91" sketch:type="MSLayerGroup" transform="translate(402.550000, 1388.000000)" font-size="72" font-family="Helvetica" fill="#FFFFFF" font-weight="260">
                <text id="C3/C4-Grass-&amp;--" sketch:type="MSTextLayer">
                    <tspan x="0.3171" y="69.2487">C3/C4 Grass &amp;  </tspan>
                </text>
                <text id="Major-Crops" sketch:type="MSTextLayer">
                    <tspan x="45.0291" y="155.2487">Major C</tspan>
                    <tspan x="297.0291" y="155.2487" letter-spacing="-1.296">r</tspan>
                    <tspan x="318.4131" y="155.2487">ops</tspan>
                </text>
            </g>
            <path d="M234.9311,1792.6056 L234.55,1635.8105 C234.55,1624.986 243.706,1616 254.5305,1616 L1035.3317,1616 C1046.1561,1616 1054.55,1624.986 1054.55,1635.8105 L1054.55,1792.6056 C1054.55,1803.4301 1046.1561,1812 1035.3317,1812 L254.5305,1812 C243.706,1812 234.9311,1803.4301 234.9311,1792.6056 L234.9311,1792.6056 Z" id="Fill-92" fill="#5F327C" sketch:type="MSShapeGroup"></path>
            <g id="Group-97" sketch:type="MSLayerGroup" transform="translate(256.550000, 1625.000000)" font-size="72" font-family="Helvetica" fill="#FFFFFF" font-weight="260">
                <text id="Land-U" sketch:type="MSTextLayer">
                    <tspan x="0.2291" y="69.4014">Land U</tspan>
                </text>
                <text id="se-&amp;-Land-Cover-" sketch:type="MSTextLayer">
                    <tspan x="236.3171" y="69.4014">se &amp; Land Cover </tspan>
                </text>
                <text id="Change-History" sketch:type="MSTextLayer">
                    <tspan x="137.6771" y="155.4014">Change Histo</tspan>
                    <tspan x="577.8131" y="155.4014" letter-spacing="1.296">r</tspan>
                    <tspan x="604.3811" y="155.4014">y</tspan>
                </text>
            </g>
            <path d="M3046,1003 L2964.1701,1003 L2964.1701,1002 L2921,1002" id="Stroke-98" stroke="#F2CA00" stroke-width="15" stroke-linecap="round" stroke-dasharray="1,45" sketch:type="MSShapeGroup" transform="translate(2983.500000, 1002.500000) scale(1, -1) translate(-2983.500000, -1002.500000) "></path>
            <path d="M2014,1002 L1938.06186,1002 L1938.06186,1001 L1898,1001" id="Stroke-99" stroke="#F2CA00" stroke-width="15" stroke-linecap="round" stroke-dasharray="1,45,1,45" sketch:type="MSShapeGroup"></path>
            <path d="M2192.12822,3378.02065 L2025.75873,3378.02054 L2025.75873,588.846085 L1873.94899,588.846085" id="Stroke-114" stroke="#F2CA00" stroke-width="15" stroke-linecap="round" stroke-dasharray="1,45" sketch:type="MSShapeGroup" transform="translate(2033.038602, 1983.433365) rotate(90.000000) translate(-2033.038602, -1983.433365) "></path>
            <path d="M1343.05,2119.4998 L1883.05,2119.4998 L1883.05,2720.4998 L1343.05,2720.4998 L1343.05,2119.4998 Z" id="Fill-101" fill="#DDDEE0" sketch:type="MSShapeGroup"></path>
            <path d="M1343.05012,2119.50016 L1883.0501,2119.50016 L1883.0501,2720.5002 L1343.05012,2720.5002 L1343.05012,2119.50016 Z" id="Stroke-103" stroke="#85888D" stroke-width="3" sketch:type="MSShapeGroup"></path>
            <path d="M1362.629,2399.8018 C1374.198,2411.3708 1374.198,2430.1288 1362.629,2441.6978 C1351.06,2453.2668 1332.302,2453.2668 1320.733,2441.6978 C1309.164,2430.1288 1309.164,2411.3708 1320.733,2399.8018 C1332.302,2388.2328 1351.06,2388.2328 1362.629,2399.8018 L1362.629,2399.8018 Z" id="Fill-109" fill="#FFFFFF" sketch:type="MSShapeGroup"></path>
            <path d="M1362.62904,2399.80176 C1374.19832,2411.37104 1374.19832,2430.12855 1362.62904,2441.69784 C1351.05975,2453.26712 1332.30224,2453.26712 1320.73296,2441.69784 C1309.16368,2430.12855 1309.16368,2411.37104 1320.73296,2399.80176 C1332.30224,2388.23248 1351.05975,2388.23248 1362.62904,2399.80176 L1362.62904,2399.80176 Z" id="Stroke-111" stroke="#85888D" stroke-width="3" sketch:type="MSShapeGroup"></path>
            <path d="M1304.55,2387.9998 L1341.55,2387.9998 L1341.55,2452.9998 L1304.55,2452.9998 L1304.55,2387.9998 Z" id="Fill-113" fill="#FFFFFF" sketch:type="MSShapeGroup"></path>
            <path d="M1353.715,2408.9178 C1360.094,2415.4298 1360.094,2425.9868 1353.715,2432.4988 C1347.336,2439.0108 1336.993,2439.0108 1330.614,2432.4988 C1324.234,2425.9868 1324.234,2415.4298 1330.614,2408.9178 C1336.993,2402.4058 1347.336,2402.4058 1353.715,2408.9178 L1353.715,2408.9178 Z" id="Fill-114" fill="#F2CA00" sketch:type="MSShapeGroup"></path>
            <path d="M1353.71452,2408.91768 C1360.09372,2415.42952 1360.09372,2425.9873 1353.71452,2432.49914 C1347.33532,2439.01099 1336.9926,2439.01099 1330.6134,2432.49914 C1324.2342,2425.9873 1324.2342,2415.42952 1330.6134,2408.91768 C1336.9926,2402.40584 1347.33532,2402.40584 1353.71452,2408.91768 L1353.71452,2408.91768 Z" id="Stroke-115" stroke="#F2CA00" stroke-width="3" sketch:type="MSShapeGroup"></path>
            <path d="M1299.387,2422.8638 L1171.844,2422.8638 L1171.844,2420.9998 L1054.55,2420.9998" id="Stroke-116" stroke="#F2CA00" stroke-width="15" stroke-linecap="round" stroke-dasharray="1,45" sketch:type="MSShapeGroup" transform="translate(1176.968500, 2421.931800) scale(1, -1) translate(-1176.968500, -2421.931800) "></path>
            <rect id="Rectangle-1" fill="#B27C4D" sketch:type="MSShapeGroup" x="234.55" y="2216.458" width="820" height="412.221" rx="8"></rect>
            <path d="M614.55,2216 L614.55,2169 L661.55,2192.5 L614.55,2216 Z" id="Triangle-1" fill="#F2C900" sketch:type="MSShapeGroup" transform="translate(638.050000, 2192.500000) rotate(90.000000) translate(-638.050000, -2192.500000) "></path>
            <path d="M2052,1026 L2052,979 L2099,1002.5 L2052,1026 Z" id="Triangle-3" fill="#F2C900" sketch:type="MSShapeGroup"></path>
            <path d="M3856.55,2421 L3749.84381,2421 L3749.84381,2422 L3693.55,2422" id="Stroke-100" stroke="#F2CA00" stroke-width="15" stroke-linecap="round" stroke-dasharray="1,45" sketch:type="MSShapeGroup"></path>
            <path d="M3875.5,2439 L3875.5,2402 L3912.5,2420.5 L3875.5,2439 Z" id="Triangle-4" fill="#F2C900" sketch:type="MSShapeGroup"></path>
            <path d="M2044.55,2426.226 L1960.68023,2426.226 L1960.68023,2424.726 L1883.55,2424.726" id="Stroke-117" stroke="#F2CA00" stroke-width="15" stroke-linecap="round" stroke-dasharray="1,45" sketch:type="MSShapeGroup" transform="translate(1964.050000, 2425.476000) scale(1, -1) translate(-1964.050000, -2425.476000) "></path>
            <path d="M2061.55,2444 L2061.55,2407 L2098.55,2425.5 L2061.55,2444 Z" id="Triangle-2" fill="#F2C900" sketch:type="MSShapeGroup"></path>
            <text id="QA/QC-" sketch:type="MSTextLayer" font-family="Helvetica" font-size="72" font-weight="260" sketch:alignment="middle" fill="#000000">
                <tspan x="1498.022" y="2355">QA/QC </tspan>
                <tspan x="1590.038" y="2441">&amp;</tspan>
                <tspan x="1362.626" y="2527">Standardization</tspan>
            </text>
            <path d="M3153.2329,2120.4998 L3693.2329,2120.4998 L3693.2329,2721.4998 L3153.2329,2721.4998 L3153.2329,2120.4998 Z" id="Fill-102" fill="#DDDEE0" sketch:type="MSShapeGroup"></path>
            <path d="M3152.05012,2120.50016 L3692.0501,2120.50016 L3692.0501,2721.5002 L3152.05012,2721.5002 L3152.05012,2120.50016 Z" id="Stroke-104" stroke="#85888D" stroke-width="3" sketch:type="MSShapeGroup"></path>
            <path d="M3171.629,2400.8018 C3183.198,2412.3708 3183.198,2431.1288 3171.629,2442.6978 C3160.06,2454.2668 3141.302,2454.2668 3129.733,2442.6978 C3118.164,2431.1288 3118.164,2412.3708 3129.733,2400.8018 C3141.302,2389.2328 3160.06,2389.2328 3171.629,2400.8018 L3171.629,2400.8018 Z" id="Fill-110" fill="#FFFFFF" sketch:type="MSShapeGroup"></path>
            <path d="M3171.62904,2400.80176 C3183.19832,2412.37104 3183.19832,2431.12855 3171.62904,2442.69784 C3160.05975,2454.26712 3141.30224,2454.26712 3129.73296,2442.69784 C3118.16368,2431.12855 3118.16368,2412.37104 3129.73296,2400.80176 C3141.30224,2389.23248 3160.05975,2389.23248 3171.62904,2400.80176 L3171.62904,2400.80176 Z" id="Stroke-112" stroke="#85888D" stroke-width="3" sketch:type="MSShapeGroup"></path>
            <path d="M3113.55,2388.9998 L3150.55,2388.9998 L3150.55,2453.9998 L3113.55,2453.9998 L3113.55,2388.9998 Z" id="Fill-115" fill="#FFFFFF" sketch:type="MSShapeGroup"></path>
            <path d="M3162.715,2409.9178 C3169.094,2416.4298 3169.094,2426.9868 3162.715,2433.4988 C3156.336,2440.0108 3145.993,2440.0108 3139.614,2433.4988 C3133.234,2426.9868 3133.234,2416.4298 3139.614,2409.9178 C3145.993,2403.4058 3156.336,2403.4058 3162.715,2409.9178 L3162.715,2409.9178 Z" id="Fill-116" fill="#F2CA00" sketch:type="MSShapeGroup"></path>
            <path d="M3162.71452,2409.91768 C3169.09372,2416.42952 3169.09372,2426.9873 3162.71452,2433.49914 C3156.33532,2440.01099 3145.9926,2440.01099 3139.6134,2433.49914 C3133.2342,2426.9873 3133.2342,2416.42952 3139.6134,2409.91768 C3145.9926,2403.40584 3156.33532,2403.40584 3162.71452,2409.91768 L3162.71452,2409.91768 Z" id="Stroke-118" stroke="#F2CA00" stroke-width="3" sketch:type="MSShapeGroup"></path>
            <path d="M3101,2422.9998 L3007.75349,2422.9998 L3007.75349,2421.9998 L2922,2421.9998" id="Stroke-119" stroke="#F2CA00" stroke-width="15" stroke-linecap="round" stroke-dasharray="1,45" sketch:type="MSShapeGroup" transform="translate(3011.500000, 2422.499800) scale(1, -1) translate(-3011.500000, -2422.499800) "></path>
            <text id="Analysis" sketch:type="MSTextLayer" font-family="Helvetica" font-size="72" font-weight="260" sketch:alignment="middle" fill="#000000">
                <tspan x="3289.022" y="2356">Analysis</tspan>
                <tspan x="3399.038" y="2442">&amp;</tspan>
                <tspan x="3269.618" y="2528">Research</tspan>
            </text>
            <text id="Rough-Model-Output" sketch:type="MSTextLayer" font-family="Helvetica" font-size="72" font-weight="260" sketch:alignment="middle" fill="#FFFFFF">
                <tspan x="308.918" y="2442">Rough Model Output</tspan>
            </text>
            <rect id="Rectangle-3" fill="#B27C4D" sketch:type="MSShapeGroup" x="2098.55" y="797.0388" width="820" height="412.221" rx="8"></rect>
            <text id="?" sketch:type="MSTextLayer" font-family="Helvetica" font-size="72" font-weight="260" sketch:alignment="middle" fill="#FFFFFF">
                <tspan x="2491.05" y="1022">?</tspan>
            </text>
            <rect id="Rectangle-2" fill="#B27C4D" sketch:type="MSShapeGroup" x="2098.55" y="2215.1902" width="820" height="412.221" rx="8"></rect>
            <text id="Standard-Model-Outpu" sketch:type="MSTextLayer" font-family="Helvetica" font-size="72" font-weight="260" sketch:alignment="middle" fill="#FFFFFF">
                <tspan x="2130.59" y="2445">Standard Model Output</tspan>
            </text>
            <rect id="Rectangle-4" fill="#4990E2" sketch:type="MSShapeGroup" x="3913.45" y="2214.1902" width="820" height="412.221" rx="8"></rect>
            <text id="Published-Data," sketch:type="MSTextLayer" font-family="Helvetica" font-size="72" font-weight="260" sketch:alignment="middle" fill="#FFFFFF">
                <tspan x="4084.982" y="2399">Published Data,</tspan>
                <tspan x="4065.65" y="2485">Scripts &amp; Figures</tspan>
            </text>
            <g id="Oval-1-+-47" sketch:type="MSLayerGroup" transform="translate(1368.000000, 1186.000000)">
                <circle id="Oval-1" stroke="#FFFFFF" stroke-width="10" fill="#85888D" sketch:type="MSShapeGroup" cx="50" cy="50" r="50"></circle>
                <text id="41" sketch:type="MSTextLayer" font-family="Helvetica" font-size="48" font-weight="260" fill="#FFFFFF">
                    <tspan x="23" y="65">41</tspan>
                </text>
            </g>
            <g id="Oval-1-+-53" sketch:type="MSLayerGroup" transform="translate(4139.000000, 547.000000)">
                <circle id="Oval-1" stroke="#FFFFFF" stroke-width="10" fill="#85888D" sketch:type="MSShapeGroup" cx="50" cy="50" r="50"></circle>
                <text id="41" sketch:type="MSTextLayer" font-family="Helvetica" font-size="48" font-weight="260" fill="#FFFFFF">
                    <tspan x="23" y="65">41</tspan>
                </text>
            </g>
            <g id="Oval-1-+-58" sketch:type="MSLayerGroup" transform="translate(4139.000000, 707.000000)">
                <circle id="Oval-1" stroke="#FFFFFF" stroke-width="10" fill="#85888D" sketch:type="MSShapeGroup" cx="50" cy="50" r="50"></circle>
                <text id="42" sketch:type="MSTextLayer" font-family="Helvetica" font-size="48" font-weight="260" fill="#FFFFFF">
                    <tspan x="23" y="65">42</tspan>
                </text>
            </g>
            <g id="Oval-1-+-59" sketch:type="MSLayerGroup" transform="translate(4139.000000, 867.000000)">
                <circle id="Oval-1" stroke="#FFFFFF" stroke-width="10" fill="#85888D" sketch:type="MSShapeGroup" cx="50" cy="50" r="50"></circle>
                <text id="43" sketch:type="MSTextLayer" font-family="Helvetica" font-size="48" font-weight="260" fill="#FFFFFF">
                    <tspan x="23" y="65">43</tspan>
                </text>
            </g>
            <g id="Oval-1-+-60" sketch:type="MSLayerGroup" transform="translate(4139.000000, 1027.000000)">
                <circle id="Oval-1" stroke="#FFFFFF" stroke-width="10" fill="#85888D" sketch:type="MSShapeGroup" cx="50" cy="50" r="50"></circle>
                <text id="44" sketch:type="MSTextLayer" font-family="Helvetica" font-size="48" font-weight="260" fill="#FFFFFF">
                    <tspan x="23" y="65">44</tspan>
                </text>
            </g>
            <g id="Oval-1-+-61" sketch:type="MSLayerGroup" transform="translate(4139.000000, 1187.000000)">
                <circle id="Oval-1" stroke="#FFFFFF" stroke-width="10" fill="#85888D" sketch:type="MSShapeGroup" cx="50" cy="50" r="50"></circle>
                <text id="45" sketch:type="MSTextLayer" font-family="Helvetica" font-size="48" font-weight="260" fill="#FFFFFF">
                    <tspan x="23" y="65">45</tspan>
                </text>
            </g>
            <g id="Oval-1-+-75" sketch:type="MSLayerGroup" transform="translate(4139.000000, 1347.000000)">
                <circle id="Oval-1" stroke="#FFFFFF" stroke-width="10" fill="#85888D" sketch:type="MSShapeGroup" cx="50" cy="50" r="50"></circle>
                <text id="46" sketch:type="MSTextLayer" font-family="Helvetica" font-size="48" font-weight="260" fill="#FFFFFF">
                    <tspan x="23" y="65">46</tspan>
                </text>
            </g>
            <g id="Oval-1-+-76" sketch:type="MSLayerGroup" transform="translate(4139.000000, 1507.000000)">
                <circle id="Oval-1" stroke="#FFFFFF" stroke-width="10" fill="#85888D" sketch:type="MSShapeGroup" cx="50" cy="50" r="50"></circle>
                <text id="47" sketch:type="MSTextLayer" font-family="Helvetica" font-size="48" font-weight="260" fill="#FFFFFF">
                    <tspan x="23" y="65">47</tspan>
                </text>
            </g>
            <g id="Oval-1-+-77" sketch:type="MSLayerGroup" transform="translate(4139.000000, 1667.000000)">
                <circle id="Oval-1" stroke="#FFFFFF" stroke-width="10" fill="#85888D" sketch:type="MSShapeGroup" cx="50" cy="50" r="50"></circle>
                <text id="48" sketch:type="MSTextLayer" font-family="Helvetica" font-size="48" font-weight="260" fill="#FFFFFF">
                    <tspan x="23" y="65">48</tspan>
                </text>
            </g>
            <g id="Oval-1-+-54" sketch:type="MSLayerGroup" transform="translate(1498.000000, 1186.000000)">
                <circle id="Oval-1" stroke="#FFFFFF" stroke-width="10" fill="#85888D" sketch:type="MSShapeGroup" cx="50" cy="50" r="50"></circle>
                <text id="42" sketch:type="MSTextLayer" font-family="Helvetica" font-size="48" font-weight="260" fill="#FFFFFF">
                    <tspan x="23" y="65">42</tspan>
                </text>
            </g>
            <g id="Oval-1-+-55" sketch:type="MSLayerGroup" transform="translate(1628.000000, 1186.000000)">
                <circle id="Oval-1" stroke="#FFFFFF" stroke-width="10" fill="#85888D" sketch:type="MSShapeGroup" cx="50" cy="50" r="50"></circle>
                <text id="47" sketch:type="MSTextLayer" font-family="Helvetica" font-size="48" font-weight="260" fill="#FFFFFF">
                    <tspan x="23" y="65">47</tspan>
                </text>
            </g>
            <g id="Oval-1-+-56" sketch:type="MSLayerGroup" transform="translate(1758.000000, 1186.000000)">
                <circle id="Oval-1" stroke="#FFFFFF" stroke-width="10" fill="#85888D" sketch:type="MSShapeGroup" cx="50" cy="50" r="50"></circle>
                <text id="48" sketch:type="MSTextLayer" font-family="Helvetica" font-size="48" font-weight="260" fill="#FFFFFF">
                    <tspan x="23" y="65">48</tspan>
                </text>
            </g>
            <g id="Oval-1-+-49" sketch:type="MSLayerGroup" transform="translate(1368.000000, 2606.000000)">
                <circle id="Oval-1" stroke="#FFFFFF" stroke-width="10" fill="#85888D" sketch:type="MSShapeGroup" cx="50" cy="50" r="50"></circle>
                <text id="41" sketch:type="MSTextLayer" font-family="Helvetica" font-size="48" font-weight="260" fill="#FFFFFF">
                    <tspan x="23" y="65">41</tspan>
                </text>
            </g>
            <g id="Oval-1-+-57" sketch:type="MSLayerGroup" transform="translate(1498.000000, 2606.000000)">
                <circle id="Oval-1" stroke="#FFFFFF" stroke-width="10" fill="#85888D" sketch:type="MSShapeGroup" cx="50" cy="50" r="50"></circle>
                <text id="42" sketch:type="MSTextLayer" font-family="Helvetica" font-size="48" font-weight="260" fill="#FFFFFF">
                    <tspan x="23" y="65">42</tspan>
                </text>
            </g>
            <g id="Oval-1-+-62" sketch:type="MSLayerGroup" transform="translate(1628.000000, 2606.000000)">
                <circle id="Oval-1" stroke="#FFFFFF" stroke-width="10" fill="#85888D" sketch:type="MSShapeGroup" cx="50" cy="50" r="50"></circle>
                <text id="47" sketch:type="MSTextLayer" font-family="Helvetica" font-size="48" font-weight="260" fill="#FFFFFF">
                    <tspan x="23" y="65">47</tspan>
                </text>
            </g>
            <g id="Oval-1-+-63" sketch:type="MSLayerGroup" transform="translate(1758.000000, 2606.000000)">
                <circle id="Oval-1" stroke="#FFFFFF" stroke-width="10" fill="#85888D" sketch:type="MSShapeGroup" cx="50" cy="50" r="50"></circle>
                <text id="48" sketch:type="MSTextLayer" font-family="Helvetica" font-size="48" font-weight="260" fill="#FFFFFF">
                    <tspan x="23" y="65">48</tspan>
                </text>
            </g>
            <g id="Oval-1-+-48" sketch:type="MSLayerGroup" transform="translate(3188.000000, 1693.000000)">
                <circle id="Oval-1" stroke="#FFFFFF" stroke-width="10" fill="#85888D" sketch:type="MSShapeGroup" cx="50" cy="50" r="50"></circle>
                <text id="41" sketch:type="MSTextLayer" font-family="Helvetica" font-size="48" font-weight="260" fill="#FFFFFF">
                    <tspan x="23" y="65">41</tspan>
                </text>
            </g>
            <g id="Oval-1-+-64" sketch:type="MSLayerGroup" transform="translate(3318.000000, 1693.000000)">
                <circle id="Oval-1" stroke="#FFFFFF" stroke-width="10" fill="#85888D" sketch:type="MSShapeGroup" cx="50" cy="50" r="50"></circle>
                <text id="42" sketch:type="MSTextLayer" font-family="Helvetica" font-size="48" font-weight="260" fill="#FFFFFF">
                    <tspan x="23" y="65">42</tspan>
                </text>
            </g>
            <g id="Oval-1-+-65" sketch:type="MSLayerGroup" transform="translate(3448.000000, 1693.000000)">
                <circle id="Oval-1" stroke="#FFFFFF" stroke-width="10" fill="#85888D" sketch:type="MSShapeGroup" cx="50" cy="50" r="50"></circle>
                <text id="47" sketch:type="MSTextLayer" font-family="Helvetica" font-size="48" font-weight="260" fill="#FFFFFF">
                    <tspan x="23" y="65">47</tspan>
                </text>
            </g>
            <g id="Oval-1-+-66" sketch:type="MSLayerGroup" transform="translate(3578.000000, 1693.000000)">
                <circle id="Oval-1" stroke="#FFFFFF" stroke-width="10" fill="#85888D" sketch:type="MSShapeGroup" cx="50" cy="50" r="50"></circle>
                <text id="48" sketch:type="MSTextLayer" font-family="Helvetica" font-size="48" font-weight="260" fill="#FFFFFF">
                    <tspan x="23" y="65">48</tspan>
                </text>
            </g>
            <g id="Oval-1-+-50" sketch:type="MSLayerGroup" transform="translate(3176.000000, 2604.000000)">
                <circle id="Oval-1" stroke="#FFFFFF" stroke-width="10" fill="#85888D" sketch:type="MSShapeGroup" cx="50" cy="50" r="50"></circle>
                <text id="41" sketch:type="MSTextLayer" font-family="Helvetica" font-size="48" font-weight="260" fill="#FFFFFF">
                    <tspan x="23" y="65">41</tspan>
                </text>
            </g>
            <g id="Oval-1-+-67" sketch:type="MSLayerGroup" transform="translate(3306.000000, 2604.000000)">
                <circle id="Oval-1" stroke="#FFFFFF" stroke-width="10" fill="#85888D" sketch:type="MSShapeGroup" cx="50" cy="50" r="50"></circle>
                <text id="42" sketch:type="MSTextLayer" font-family="Helvetica" font-size="48" font-weight="260" fill="#FFFFFF">
                    <tspan x="23" y="65">42</tspan>
                </text>
            </g>
            <g id="Oval-1-+-68" sketch:type="MSLayerGroup" transform="translate(3436.000000, 2604.000000)">
                <circle id="Oval-1" stroke="#FFFFFF" stroke-width="10" fill="#85888D" sketch:type="MSShapeGroup" cx="50" cy="50" r="50"></circle>
                <text id="47" sketch:type="MSTextLayer" font-family="Helvetica" font-size="48" font-weight="260" fill="#FFFFFF">
                    <tspan x="23" y="65">47</tspan>
                </text>
            </g>
            <g id="Oval-1-+-69" sketch:type="MSLayerGroup" transform="translate(3566.000000, 2604.000000)">
                <circle id="Oval-1" stroke="#FFFFFF" stroke-width="10" fill="#85888D" sketch:type="MSShapeGroup" cx="50" cy="50" r="50"></circle>
                <text id="48" sketch:type="MSTextLayer" font-family="Helvetica" font-size="48" font-weight="260" fill="#FFFFFF">
                    <tspan x="23" y="65">48</tspan>
                </text>
            </g>
            <g id="Oval-1-+-51" sketch:type="MSLayerGroup" transform="translate(4086.000000, 2562.000000)">
                <circle id="Oval-1" stroke="#FFFFFF" stroke-width="10" fill="#85888D" sketch:type="MSShapeGroup" cx="50" cy="50" r="50"></circle>
                <text id="43" sketch:type="MSTextLayer" font-family="Helvetica" font-size="47.1724138" font-weight="260" fill="#FFFFFF">
                    <tspan x="23" y="63">43</tspan>
                </text>
            </g>
            <g id="Oval-1-+-52" sketch:type="MSLayerGroup" transform="translate(2310.000000, 2562.000000)">
                <circle id="Oval-1" stroke="#FFFFFF" stroke-width="10" fill="#85888D" sketch:type="MSShapeGroup" cx="50" cy="50" r="50"></circle>
                <text id="43" sketch:type="MSTextLayer" font-family="Helvetica" font-size="47.1724138" font-weight="260" fill="#FFFFFF">
                    <tspan x="23" y="63">43</tspan>
                </text>
            </g>
            <g id="Oval-1-+-70" sketch:type="MSLayerGroup" transform="translate(4216.000000, 2562.136000)">
                <circle id="Oval-1" stroke="#FFFFFF" stroke-width="10" fill="#85888D" sketch:type="MSShapeGroup" cx="50" cy="50" r="50"></circle>
                <text id="44" sketch:type="MSTextLayer" font-family="Helvetica" font-size="47.1724138" font-weight="260" fill="#FFFFFF">
                    <tspan x="23" y="63">44</tspan>
                </text>
            </g>
            <g id="Oval-1-+-71" sketch:type="MSLayerGroup" transform="translate(4346.000000, 2562.136000)">
                <circle id="Oval-1" stroke="#FFFFFF" stroke-width="10" fill="#85888D" sketch:type="MSShapeGroup" cx="50" cy="50" r="50"></circle>
                <text id="45" sketch:type="MSTextLayer" font-family="Helvetica" font-size="47.1724138" font-weight="260" fill="#FFFFFF">
                    <tspan x="23" y="63">45</tspan>
                </text>
            </g>
            <g id="Oval-1-+-72" sketch:type="MSLayerGroup" transform="translate(4476.000000, 2562.136000)">
                <circle id="Oval-1" stroke="#FFFFFF" stroke-width="10" fill="#85888D" sketch:type="MSShapeGroup" cx="50" cy="50" r="50"></circle>
                <text id="46" sketch:type="MSTextLayer" font-family="Helvetica" font-size="47.1724138" font-weight="260" fill="#FFFFFF">
                    <tspan x="23" y="63">46</tspan>
                </text>
            </g>
            <g id="Oval-1-+-74" sketch:type="MSLayerGroup" transform="translate(2442.050000, 2562.000000)">
                <circle id="Oval-1" stroke="#FFFFFF" stroke-width="10" fill="#85888D" sketch:type="MSShapeGroup" cx="50" cy="50" r="50"></circle>
                <text id="47" sketch:type="MSTextLayer" font-family="Helvetica" font-size="47.1724138" font-weight="260" fill="#FFFFFF">
                    <tspan x="23" y="63">47</tspan>
                </text>
            </g>
            <g id="Oval-1-+-73" sketch:type="MSLayerGroup" transform="translate(2572.050000, 2562.000000)">
                <circle id="Oval-1" stroke="#FFFFFF" stroke-width="10" fill="#85888D" sketch:type="MSShapeGroup" cx="50" cy="50" r="50"></circle>
                <text id="48" sketch:type="MSTextLayer" font-family="Helvetica" font-size="47.1724138" font-weight="260" fill="#FFFFFF">
                    <tspan x="23" y="63">48</tspan>
                </text>
            </g>
            <text id="110-year" sketch:type="MSTextLayer" font-family="Helvetica" font-size="72" font-weight="260" sketch:alignment="middle" fill="#000000">
                <tspan x="1470.444" y="469">110-year</tspan>
                <tspan x="1336.452" y="555">simulation period</tspan>
                <tspan x="1396.392" y="641">(1901 - 2010)</tspan>
            </text>
            <text id="Provenance-Use-Cases" sketch:type="MSTextLayer" font-family="Helvetica" font-size="100" font-weight="260" fill="#000000">
                <tspan x="4139" y="284.5">Provenance Use Cases</tspan>
            </text>
            <text id="Applied-in-the-MsTMI" sketch:type="MSTextLayer" font-family="Helvetica" font-size="72" font-weight="260" fill="#979A9F">
                <tspan x="4139" y="394.5">Applied in the MsTMIP </tspan>
                <tspan x="4139" y="480.5">Research Program</tspan>
            </text>
            <text id="Document-Script" sketch:type="MSTextLayer" font-family="Helvetica" font-size="72" font-weight="260" fill="#000000">
                <tspan x="4311" y="624">Document Script</tspan>
            </text>
            <text id="Track-Run-History" sketch:type="MSTextLayer" font-family="Helvetica" font-size="72" font-weight="260" fill="#000000">
                <tspan x="4311" y="776">Track Run History</tspan>
            </text>
            <text id="Publish-in-DataONE" sketch:type="MSTextLayer" font-family="Helvetica" font-size="72" font-weight="260" fill="#000000">
                <tspan x="4311" y="936">Publish in DataONE</tspan>
            </text>
            <text id="Explore-Derived-Data" sketch:type="MSTextLayer" font-family="Helvetica" font-size="72" font-weight="260" fill="#000000">
                <tspan x="4311" y="1096">Explore Derived Data</tspan>
            </text>
            <text id="Discover-Derived-Pro" sketch:type="MSTextLayer" font-family="Helvetica" font-size="72" font-weight="260" fill="#000000">
                <tspan x="4311" y="1255">Discover Derived Products</tspan>
            </text>
            <text id="Double-Check" sketch:type="MSTextLayer" font-family="Helvetica" font-size="72" font-weight="260" fill="#000000">
                <tspan x="4311" y="1416">Double Check</tspan>
            </text>
            <text id="Visualize-Workflow" sketch:type="MSTextLayer" font-family="Helvetica" font-size="72" font-weight="260" fill="#000000">
                <tspan x="4311" y="1576">Visualize Workflow</tspan>
            </text>
            <text id="Visualize-Run" sketch:type="MSTextLayer" font-family="Helvetica" font-size="72" font-weight="260" fill="#000000">
                <tspan x="4311" y="1736">Visualize Run</tspan>
            </text>
            <text id="Diagram-derived-from" sketch:type="MSTextLayer" font-family="Helvetica" font-size="72" font-weight="260" fill="#979A9F">
                <tspan x="242" y="2901.4998">Diagram derived from Huntzinger et al., Geosci. Model Dev., 6, 2121– 2133, 2013 (doi:10.5194/gmd-6-2121-2013)</tspan>
            </text>
        </g>
    </g>
</svg>